<?xml version="1.0" encoding="utf-8" standalone="no"?>
<!DOCTYPE svg PUBLIC "-//W3C//DTD SVG 1.1//EN"
  "http://www.w3.org/Graphics/SVG/1.1/DTD/svg11.dtd">
<svg xmlns:xlink="http://www.w3.org/1999/xlink" width="424.53pt" height="272.196pt" viewBox="0 0 424.53 272.196" xmlns="http://www.w3.org/2000/svg" version="1.1">
 <metadata>
  <rdf:RDF xmlns:dc="http://purl.org/dc/elements/1.1/" xmlns:cc="http://creativecommons.org/ns#" xmlns:rdf="http://www.w3.org/1999/02/22-rdf-syntax-ns#">
   <cc:Work>
    <dc:type rdf:resource="http://purl.org/dc/dcmitype/StillImage"/>
    <dc:date>2026-06-15T18:21:19.270949</dc:date>
    <dc:format>image/svg+xml</dc:format>
    <dc:creator>
     <cc:Agent>
      <dc:title>Matplotlib v3.10.8, https://matplotlib.org/</dc:title>
     </cc:Agent>
    </dc:creator>
   </cc:Work>
  </rdf:RDF>
 </metadata>
 <defs>
  <style type="text/css">*{stroke-linejoin: round; stroke-linecap: butt}</style>
 </defs>
 <g id="figure_1">
  <g id="patch_1">
   <path d="M 0 272.196
L 424.53 272.196
L 424.53 0
L 0 0
z
" style="fill: #ffffff"/>
  </g>
  <g id="axes_1">
   <g id="patch_2">
    <path d="M 31.39767 59.016996
L 83.48418 59.016996
Q 88.40574 59.016996 88.40574 55.923444
L 88.40574 41.229072
Q 88.40574 38.13552 83.48418 38.13552
L 31.39767 38.13552
Q 26.47611 38.13552 26.47611 41.229072
L 26.47611 55.923444
Q 26.47611 59.016996 31.39767 59.016996
z
" clip-path="url(#p512a133e7c)" style="fill: #fbfaf6; stroke: #ddd7cb; stroke-width: 0.7; stroke-linejoin: miter"/>
   </g>
   <g id="patch_3">
    <path d="M 94.96782 59.016996
L 159.35823 59.016996
Q 164.27979 59.016996 164.27979 55.923444
L 164.27979 41.229072
Q 164.27979 38.13552 159.35823 38.13552
L 94.96782 38.13552
Q 90.04626 38.13552 90.04626 41.229072
L 90.04626 55.923444
Q 90.04626 59.016996 94.96782 59.016996
z
" clip-path="url(#p512a133e7c)" style="fill: #fbfaf6; stroke: #ddd7cb; stroke-width: 0.7; stroke-linejoin: miter"/>
   </g>
   <g id="patch_4">
    <path d="M 170.84187 59.016996
L 229.08033 59.016996
Q 234.00189 59.016996 234.00189 55.923444
L 234.00189 41.229072
Q 234.00189 38.13552 229.08033 38.13552
L 170.84187 38.13552
Q 165.92031 38.13552 165.92031 41.229072
L 165.92031 55.923444
Q 165.92031 59.016996 170.84187 59.016996
z
" clip-path="url(#p512a133e7c)" style="fill: #fbfaf6; stroke: #ddd7cb; stroke-width: 0.7; stroke-linejoin: miter"/>
   </g>
   <g id="patch_5">
    <path d="M 26.47611 100.00656
L 398.05389 100.00656
Q 402.15519 100.00656 402.15519 97.4286
L 402.15519 83.507616
Q 402.15519 80.929656 398.05389 80.929656
L 26.47611 80.929656
Q 22.37481 80.929656 22.37481 83.507616
L 22.37481 97.4286
Q 22.37481 100.00656 26.47611 100.00656
z
" clip-path="url(#p512a133e7c)" style="fill: #fbfaf6; stroke: #ddd7cb; stroke-width: 0.3; stroke-linejoin: miter"/>
   </g>
   <g id="patch_6">
    <path d="M 30.98754 97.4286
L 46.57248 97.4286
Q 49.85352 97.4286 49.85352 95.366232
L 49.85352 85.054392
Q 49.85352 82.992024 46.57248 82.992024
L 30.98754 82.992024
Q 27.7065 82.992024 27.7065 85.054392
L 27.7065 95.366232
Q 27.7065 97.4286 30.98754 97.4286
z
" clip-path="url(#p512a133e7c)" style="fill: #8d867e"/>
   </g>
   <g id="patch_7">
    <path d="M 193.80915 92.788272
L 234.00189 92.788272
L 234.00189 87.632352
L 193.80915 87.632352
z
" clip-path="url(#p512a133e7c)" style="fill: #ece7df"/>
   </g>
   <g id="patch_8">
    <path d="M 252.86787 96.913008
L 293.06061 96.913008
Q 296.75178 96.913008 296.75178 94.592844
L 296.75178 85.82778
Q 296.75178 83.507616 293.06061 83.507616
L 252.86787 83.507616
Q 249.1767 83.507616 249.1767 85.82778
L 249.1767 94.592844
Q 249.1767 96.913008 252.86787 96.913008
z
" clip-path="url(#p512a133e7c)" style="fill: #8d867e"/>
   </g>
   <g id="patch_9">
    <path d="M 26.47611 118.310076
L 398.05389 118.310076
Q 402.15519 118.310076 402.15519 115.732116
L 402.15519 101.811132
Q 402.15519 99.233172 398.05389 99.233172
L 26.47611 99.233172
Q 22.37481 99.233172 22.37481 101.811132
L 22.37481 115.732116
Q 22.37481 118.310076 26.47611 118.310076
z
" clip-path="url(#p512a133e7c)" style="fill: #ffffff; stroke: #ddd7cb; stroke-width: 0.3; stroke-linejoin: miter"/>
   </g>
   <g id="patch_10">
    <path d="M 30.98754 115.732116
L 46.57248 115.732116
Q 49.85352 115.732116 49.85352 113.669748
L 49.85352 103.357908
Q 49.85352 101.29554 46.57248 101.29554
L 30.98754 101.29554
Q 27.7065 101.29554 27.7065 103.357908
L 27.7065 113.669748
Q 27.7065 115.732116 30.98754 115.732116
z
" clip-path="url(#p512a133e7c)" style="fill: #b89142"/>
   </g>
   <g id="patch_11">
    <path d="M 193.80915 111.091788
L 234.00189 111.091788
L 234.00189 105.935868
L 193.80915 105.935868
z
" clip-path="url(#p512a133e7c)" style="fill: #ece7df"/>
   </g>
   <g id="patch_12">
    <path d="M 193.80915 111.091788
L 210.359102 111.091788
L 210.359102 105.935868
L 193.80915 105.935868
z
" clip-path="url(#p512a133e7c)" style="fill: #b89142"/>
   </g>
   <g id="patch_13">
    <path d="M 252.86787 115.216524
L 293.06061 115.216524
Q 296.75178 115.216524 296.75178 112.89636
L 296.75178 104.131296
Q 296.75178 101.811132 293.06061 101.811132
L 252.86787 101.811132
Q 249.1767 101.811132 249.1767 104.131296
L 249.1767 112.89636
Q 249.1767 115.216524 252.86787 115.216524
z
" clip-path="url(#p512a133e7c)" style="fill: #b89142"/>
   </g>
   <g id="patch_14">
    <path d="M 26.47611 136.613592
L 398.05389 136.613592
Q 402.15519 136.613592 402.15519 134.035632
L 402.15519 120.114648
Q 402.15519 117.536688 398.05389 117.536688
L 26.47611 117.536688
Q 22.37481 117.536688 22.37481 120.114648
L 22.37481 134.035632
Q 22.37481 136.613592 26.47611 136.613592
z
" clip-path="url(#p512a133e7c)" style="fill: #fbfaf6; stroke: #ddd7cb; stroke-width: 0.3; stroke-linejoin: miter"/>
   </g>
   <g id="patch_15">
    <path d="M 30.98754 134.035632
L 46.57248 134.035632
Q 49.85352 134.035632 49.85352 131.973264
L 49.85352 121.661424
Q 49.85352 119.599056 46.57248 119.599056
L 30.98754 119.599056
Q 27.7065 119.599056 27.7065 121.661424
L 27.7065 131.973264
Q 27.7065 134.035632 30.98754 134.035632
z
" clip-path="url(#p512a133e7c)" style="fill: #b89142"/>
   </g>
   <g id="patch_16">
    <path d="M 193.80915 129.395304
L 234.00189 129.395304
L 234.00189 124.239384
L 193.80915 124.239384
z
" clip-path="url(#p512a133e7c)" style="fill: #ece7df"/>
   </g>
   <g id="patch_17">
    <path d="M 193.80915 129.395304
L 219.816217 129.395304
L 219.816217 124.239384
L 193.80915 124.239384
z
" clip-path="url(#p512a133e7c)" style="fill: #b89142"/>
   </g>
   <g id="patch_18">
    <path d="M 252.86787 133.52004
L 293.06061 133.52004
Q 296.75178 133.52004 296.75178 131.199876
L 296.75178 122.434812
Q 296.75178 120.114648 293.06061 120.114648
L 252.86787 120.114648
Q 249.1767 120.114648 249.1767 122.434812
L 249.1767 131.199876
Q 249.1767 133.52004 252.86787 133.52004
z
" clip-path="url(#p512a133e7c)" style="fill: #b89142"/>
   </g>
   <g id="patch_19">
    <path d="M 26.47611 154.917108
L 398.05389 154.917108
Q 402.15519 154.917108 402.15519 152.339148
L 402.15519 138.418164
Q 402.15519 135.840204 398.05389 135.840204
L 26.47611 135.840204
Q 22.37481 135.840204 22.37481 138.418164
L 22.37481 152.339148
Q 22.37481 154.917108 26.47611 154.917108
z
" clip-path="url(#p512a133e7c)" style="fill: #ffffff; stroke: #ddd7cb; stroke-width: 0.3; stroke-linejoin: miter"/>
   </g>
   <g id="patch_20">
    <path d="M 30.98754 152.339148
L 46.57248 152.339148
Q 49.85352 152.339148 49.85352 150.27678
L 49.85352 139.96494
Q 49.85352 137.902572 46.57248 137.902572
L 30.98754 137.902572
Q 27.7065 137.902572 27.7065 139.96494
L 27.7065 150.27678
Q 27.7065 152.339148 30.98754 152.339148
z
" clip-path="url(#p512a133e7c)" style="fill: #8d867e"/>
   </g>
   <g id="patch_21">
    <path d="M 193.80915 147.69882
L 234.00189 147.69882
L 234.00189 142.5429
L 193.80915 142.5429
z
" clip-path="url(#p512a133e7c)" style="fill: #ece7df"/>
   </g>
   <g id="patch_22">
    <path d="M 252.86787 151.823556
L 293.06061 151.823556
Q 296.75178 151.823556 296.75178 149.503392
L 296.75178 140.738328
Q 296.75178 138.418164 293.06061 138.418164
L 252.86787 138.418164
Q 249.1767 138.418164 249.1767 140.738328
L 249.1767 149.503392
Q 249.1767 151.823556 252.86787 151.823556
z
" clip-path="url(#p512a133e7c)" style="fill: #8d867e"/>
   </g>
   <g id="patch_23">
    <path d="M 26.47611 173.220624
L 398.05389 173.220624
Q 402.15519 173.220624 402.15519 170.642664
L 402.15519 156.72168
Q 402.15519 154.14372 398.05389 154.14372
L 26.47611 154.14372
Q 22.37481 154.14372 22.37481 156.72168
L 22.37481 170.642664
Q 22.37481 173.220624 26.47611 173.220624
z
" clip-path="url(#p512a133e7c)" style="fill: #fbfaf6; stroke: #ddd7cb; stroke-width: 0.3; stroke-linejoin: miter"/>
   </g>
   <g id="patch_24">
    <path d="M 30.98754 170.642664
L 46.57248 170.642664
Q 49.85352 170.642664 49.85352 168.580296
L 49.85352 158.268456
Q 49.85352 156.206088 46.57248 156.206088
L 30.98754 156.206088
Q 27.7065 156.206088 27.7065 158.268456
L 27.7065 168.580296
Q 27.7065 170.642664 30.98754 170.642664
z
" clip-path="url(#p512a133e7c)" style="fill: #2a9d8f"/>
   </g>
   <g id="patch_25">
    <path d="M 193.80915 166.002336
L 234.00189 166.002336
L 234.00189 160.846416
L 193.80915 160.846416
z
" clip-path="url(#p512a133e7c)" style="fill: #ece7df"/>
   </g>
   <g id="patch_26">
    <path d="M 193.80915 166.002336
L 222.180496 166.002336
L 222.180496 160.846416
L 193.80915 160.846416
z
" clip-path="url(#p512a133e7c)" style="fill: #2a9d8f"/>
   </g>
   <g id="patch_27">
    <path d="M 252.86787 170.127072
L 293.06061 170.127072
Q 296.75178 170.127072 296.75178 167.806908
L 296.75178 159.041844
Q 296.75178 156.72168 293.06061 156.72168
L 252.86787 156.72168
Q 249.1767 156.72168 249.1767 159.041844
L 249.1767 167.806908
Q 249.1767 170.127072 252.86787 170.127072
z
" clip-path="url(#p512a133e7c)" style="fill: #2a9d8f"/>
   </g>
   <g id="patch_28">
    <path d="M 26.47611 191.52414
L 398.05389 191.52414
Q 402.15519 191.52414 402.15519 188.94618
L 402.15519 175.025196
Q 402.15519 172.447236 398.05389 172.447236
L 26.47611 172.447236
Q 22.37481 172.447236 22.37481 175.025196
L 22.37481 188.94618
Q 22.37481 191.52414 26.47611 191.52414
z
" clip-path="url(#p512a133e7c)" style="fill: #ffffff; stroke: #ddd7cb; stroke-width: 0.3; stroke-linejoin: miter"/>
   </g>
   <g id="patch_29">
    <path d="M 30.98754 188.94618
L 46.57248 188.94618
Q 49.85352 188.94618 49.85352 186.883812
L 49.85352 176.571972
Q 49.85352 174.509604 46.57248 174.509604
L 30.98754 174.509604
Q 27.7065 174.509604 27.7065 176.571972
L 27.7065 186.883812
Q 27.7065 188.94618 30.98754 188.94618
z
" clip-path="url(#p512a133e7c)" style="fill: #2a9d8f"/>
   </g>
   <g id="patch_30">
    <path d="M 193.80915 184.305852
L 234.00189 184.305852
L 234.00189 179.149932
L 193.80915 179.149932
z
" clip-path="url(#p512a133e7c)" style="fill: #ece7df"/>
   </g>
   <g id="patch_31">
    <path d="M 193.80915 184.305852
L 234.00189 184.305852
L 234.00189 179.149932
L 193.80915 179.149932
z
" clip-path="url(#p512a133e7c)" style="fill: #2a9d8f"/>
   </g>
   <g id="patch_32">
    <path d="M 252.86787 188.430588
L 293.06061 188.430588
Q 296.75178 188.430588 296.75178 186.110424
L 296.75178 177.34536
Q 296.75178 175.025196 293.06061 175.025196
L 252.86787 175.025196
Q 249.1767 175.025196 249.1767 177.34536
L 249.1767 186.110424
Q 249.1767 188.430588 252.86787 188.430588
z
" clip-path="url(#p512a133e7c)" style="fill: #2a9d8f"/>
   </g>
   <g id="patch_33">
    <path d="M 26.47611 209.827656
L 398.05389 209.827656
Q 402.15519 209.827656 402.15519 207.249696
L 402.15519 193.328712
Q 402.15519 190.750752 398.05389 190.750752
L 26.47611 190.750752
Q 22.37481 190.750752 22.37481 193.328712
L 22.37481 207.249696
Q 22.37481 209.827656 26.47611 209.827656
z
" clip-path="url(#p512a133e7c)" style="fill: #fbfaf6; stroke: #ddd7cb; stroke-width: 0.3; stroke-linejoin: miter"/>
   </g>
   <g id="patch_34">
    <path d="M 30.98754 207.249696
L 46.57248 207.249696
Q 49.85352 207.249696 49.85352 205.187328
L 49.85352 194.875488
Q 49.85352 192.81312 46.57248 192.81312
L 30.98754 192.81312
Q 27.7065 192.81312 27.7065 194.875488
L 27.7065 205.187328
Q 27.7065 207.249696 30.98754 207.249696
z
" clip-path="url(#p512a133e7c)" style="fill: #d14b4b"/>
   </g>
   <g id="patch_35">
    <path d="M 193.80915 202.609368
L 234.00189 202.609368
L 234.00189 197.453448
L 193.80915 197.453448
z
" clip-path="url(#p512a133e7c)" style="fill: #ece7df"/>
   </g>
   <g id="patch_36">
    <path d="M 193.80915 202.609368
L 196.173429 202.609368
L 196.173429 197.453448
L 193.80915 197.453448
z
" clip-path="url(#p512a133e7c)" style="fill: #d14b4b"/>
   </g>
   <g id="patch_37">
    <path d="M 252.86787 206.734104
L 293.06061 206.734104
Q 296.75178 206.734104 296.75178 204.41394
L 296.75178 195.648876
Q 296.75178 193.328712 293.06061 193.328712
L 252.86787 193.328712
Q 249.1767 193.328712 249.1767 195.648876
L 249.1767 204.41394
Q 249.1767 206.734104 252.86787 206.734104
z
" clip-path="url(#p512a133e7c)" style="fill: #d14b4b"/>
   </g>
   <g id="patch_38">
    <path d="M 26.47611 228.131172
L 398.05389 228.131172
Q 402.15519 228.131172 402.15519 225.553212
L 402.15519 211.632228
Q 402.15519 209.054268 398.05389 209.054268
L 26.47611 209.054268
Q 22.37481 209.054268 22.37481 211.632228
L 22.37481 225.553212
Q 22.37481 228.131172 26.47611 228.131172
z
" clip-path="url(#p512a133e7c)" style="fill: #ffffff; stroke: #ddd7cb; stroke-width: 0.3; stroke-linejoin: miter"/>
   </g>
   <g id="patch_39">
    <path d="M 30.98754 225.553212
L 46.57248 225.553212
Q 49.85352 225.553212 49.85352 223.490844
L 49.85352 213.179004
Q 49.85352 211.116636 46.57248 211.116636
L 30.98754 211.116636
Q 27.7065 211.116636 27.7065 213.179004
L 27.7065 223.490844
Q 27.7065 225.553212 30.98754 225.553212
z
" clip-path="url(#p512a133e7c)" style="fill: #a95f3d"/>
   </g>
   <g id="patch_40">
    <path d="M 193.80915 220.912884
L 234.00189 220.912884
L 234.00189 215.756964
L 193.80915 215.756964
z
" clip-path="url(#p512a133e7c)" style="fill: #ece7df"/>
   </g>
   <g id="patch_41">
    <path d="M 193.80915 220.912884
L 231.637611 220.912884
L 231.637611 215.756964
L 193.80915 215.756964
z
" clip-path="url(#p512a133e7c)" style="fill: #a95f3d"/>
   </g>
   <g id="patch_42">
    <path d="M 252.86787 225.03762
L 293.06061 225.03762
Q 296.75178 225.03762 296.75178 222.717456
L 296.75178 213.952392
Q 296.75178 211.632228 293.06061 211.632228
L 252.86787 211.632228
Q 249.1767 211.632228 249.1767 213.952392
L 249.1767 222.717456
Q 249.1767 225.03762 252.86787 225.03762
z
" clip-path="url(#p512a133e7c)" style="fill: #a95f3d"/>
   </g>
   <g id="patch_43">
    <path d="M 26.47611 246.434688
L 398.05389 246.434688
Q 402.15519 246.434688 402.15519 243.856728
L 402.15519 229.935744
Q 402.15519 227.357784 398.05389 227.357784
L 26.47611 227.357784
Q 22.37481 227.357784 22.37481 229.935744
L 22.37481 243.856728
Q 22.37481 246.434688 26.47611 246.434688
z
" clip-path="url(#p512a133e7c)" style="fill: #fbfaf6; stroke: #ddd7cb; stroke-width: 0.3; stroke-linejoin: miter"/>
   </g>
   <g id="patch_44">
    <path d="M 30.98754 243.856728
L 46.57248 243.856728
Q 49.85352 243.856728 49.85352 241.79436
L 49.85352 231.48252
Q 49.85352 229.420152 46.57248 229.420152
L 30.98754 229.420152
Q 27.7065 229.420152 27.7065 231.48252
L 27.7065 241.79436
Q 27.7065 243.856728 30.98754 243.856728
z
" clip-path="url(#p512a133e7c)" style="fill: #a95f3d"/>
   </g>
   <g id="patch_45">
    <path d="M 193.80915 239.2164
L 234.00189 239.2164
L 234.00189 234.06048
L 193.80915 234.06048
z
" clip-path="url(#p512a133e7c)" style="fill: #ece7df"/>
   </g>
   <g id="patch_46">
    <path d="M 193.80915 239.2164
L 207.994823 239.2164
L 207.994823 234.06048
L 193.80915 234.06048
z
" clip-path="url(#p512a133e7c)" style="fill: #a95f3d"/>
   </g>
   <g id="patch_47">
    <path d="M 252.86787 243.341136
L 293.06061 243.341136
Q 296.75178 243.341136 296.75178 241.020972
L 296.75178 232.255908
Q 296.75178 229.935744 293.06061 229.935744
L 252.86787 229.935744
Q 249.1767 229.935744 249.1767 232.255908
L 249.1767 241.020972
Q 249.1767 243.341136 252.86787 243.341136
z
" clip-path="url(#p512a133e7c)" style="fill: #a95f3d"/>
   </g>
   <g id="line2d_1">
    <path d="M 27.7065 78.0939
L 398.87415 78.0939
" clip-path="url(#p512a133e7c)" style="fill: none; stroke: #ddd7cb; stroke-width: 0.9; stroke-linecap: square"/>
   </g>
   <g id="text_1">
    <text style="font-weight: 700; font-size: 10.4px; font-family: 'DejaVu Serif', serif; text-anchor: start; fill: #15191f" x="29.75715" y="21.596632" transform="rotate(-0 29.75715 21.596632)">Evaluation inventory follows the nine-stage Assays Roadmap</text>
   </g>
   <g id="text_2">
    <text style="font-size: 7px; font-family: 'DejaVu Serif', serif; text-anchor: start; fill: #5f6872" x="29.75715" y="33.572417" transform="rotate(-0 29.75715 33.572417)">Coverage is broad by stage count, but several covered stages remain single-source dominated.</text>
   </g>
   <g id="text_3">
    <text style="font-weight: 700; font-size: 9px; font-family: 'DejaVu Sans Mono', monospace; text-anchor: start; fill: #15191f" x="38.78001" y="50.415206" transform="rotate(-0 38.78001 50.415206)">70</text>
   </g>
   <g id="text_4">
    <text style="font-size: 5.9px; font-family: 'DejaVu Serif', serif; text-anchor: start; fill: #5f6872" x="57.64599" y="49.559799" transform="rotate(-0 57.64599 49.559799)">evals</text>
   </g>
   <g id="text_5">
    <text style="font-weight: 700; font-size: 9px; font-family: 'DejaVu Sans Mono', monospace; text-anchor: start; fill: #15191f" x="102.35016" y="50.415206" transform="rotate(-0 102.35016 50.415206)">7/9</text>
   </g>
   <g id="text_6">
    <text style="font-size: 5.9px; font-family: 'DejaVu Serif', serif; text-anchor: start; fill: #5f6872" x="121.21614" y="49.517854" transform="rotate(-0 121.21614 49.517854)">stages covered</text>
   </g>
   <g id="text_7">
    <text style="font-weight: 700; font-size: 9px; font-family: 'DejaVu Sans Mono', monospace; text-anchor: start; fill: #a95f3d" x="178.22421" y="50.415206" transform="rotate(-0 178.22421 50.415206)">S7</text>
   </g>
   <g id="text_8">
    <text style="font-weight: 700; font-size: 5.9px; font-family: 'DejaVu Serif', serif; text-anchor: start; fill: #5f6872" x="197.09019" y="49.517854" transform="rotate(-0 197.09019 49.517854)">build gap</text>
   </g>
   <g id="text_9">
    <text style="font-weight: 700; font-size: 6.2px; font-family: 'DejaVu Sans Mono', monospace; text-anchor: start; fill: #5f6872" x="29.75715" y="73.359813" transform="rotate(-0 29.75715 73.359813)">Stage</text>
   </g>
   <g id="text_10">
    <text style="font-weight: 700; font-size: 6.2px; font-family: 'DejaVu Sans Mono', monospace; text-anchor: start; fill: #5f6872" x="193.80915" y="73.359813" transform="rotate(-0 193.80915 73.359813)">Evals</text>
   </g>
   <g id="text_11">
    <text style="font-weight: 700; font-size: 6.2px; font-family: 'DejaVu Sans Mono', monospace; text-anchor: start; fill: #5f6872" x="252.45774" y="73.359813" transform="rotate(-0 252.45774 73.359813)">Status</text>
   </g>
   <g id="text_12">
    <text style="font-weight: 700; font-size: 6.2px; font-family: 'DejaVu Sans Mono', monospace; text-anchor: start; fill: #5f6872" x="308.64555" y="73.5245" transform="rotate(-0 308.64555 73.5245)">Roadmap interpretation</text>
   </g>
   <g id="text_13">
    <text style="font-weight: 700; font-size: 6.2px; font-family: 'DejaVu Sans Mono', monospace; text-anchor: middle; fill: #ffffff" x="38.78001" y="91.921124" transform="rotate(-0 38.78001 91.921124)">S1</text>
   </g>
   <g id="text_14">
    <text style="font-weight: 700; font-size: 5.65px; font-family: 'DejaVu Serif', serif; fill: #15191f" transform="translate(51.49404 88.605977)">Disease / model</text>
    <text style="font-weight: 700; font-size: 5.65px; font-family: 'DejaVu Serif', serif; fill: #15191f" transform="translate(51.49404 94.932741)">characterization</text>
   </g>
   <g id="text_15">
    <text style="font-weight: 700; font-size: 5.6px; font-family: 'DejaVu Sans Mono', monospace; text-anchor: end; fill: #15191f" x="240.15384" y="91.755562" transform="rotate(-0 240.15384 91.755562)">0</text>
   </g>
   <g id="text_16">
    <text style="font-weight: 700; font-size: 5px; font-family: 'DejaVu Sans Mono', monospace; text-anchor: middle; fill: #ffffff" x="272.96424" y="91.589999" transform="rotate(-0 272.96424 91.589999)">Deferred</text>
   </g>
   <g id="text_17">
    <text style="font-size: 5.55px; font-family: 'DejaVu Serif', serif; text-anchor: start; fill: #5f6872" x="308.64555" y="91.741765" transform="rotate(-0 308.64555 91.741765)">out of v1 scope</text>
   </g>
   <g id="text_18">
    <text style="font-weight: 700; font-size: 6.2px; font-family: 'DejaVu Sans Mono', monospace; text-anchor: middle; fill: #ffffff" x="38.78001" y="110.22464" transform="rotate(-0 38.78001 110.22464)">S2</text>
   </g>
   <g id="text_19">
    <text style="font-weight: 700; font-size: 5.65px; font-family: 'DejaVu Serif', serif; fill: #15191f" transform="translate(51.49404 106.869325)">Primary screening</text>
    <text style="font-weight: 700; font-size: 5.65px; font-family: 'DejaVu Serif', serif; fill: #15191f" transform="translate(51.49404 113.276425)">&amp; hit confirmation</text>
   </g>
   <g id="text_20">
    <text style="font-weight: 700; font-size: 5.6px; font-family: 'DejaVu Sans Mono', monospace; text-anchor: end; fill: #15191f" x="240.15384" y="110.059078" transform="rotate(-0 240.15384 110.059078)">7</text>
   </g>
   <g id="text_21">
    <text style="font-weight: 700; font-size: 5px; font-family: 'DejaVu Sans Mono', monospace; text-anchor: middle; fill: #ffffff" x="272.96424" y="110.023984" transform="rotate(-0 272.96424 110.023984)">Diversify</text>
   </g>
   <g id="text_22">
    <text style="font-size: 5.55px; font-family: 'DejaVu Serif', serif; text-anchor: start; fill: #15191f" x="308.64555" y="110.005824" transform="rotate(-0 308.64555 110.005824)">PRISM-heavy</text>
   </g>
   <g id="text_23">
    <text style="font-weight: 700; font-size: 6.2px; font-family: 'DejaVu Sans Mono', monospace; text-anchor: middle; fill: #ffffff" x="38.78001" y="128.528156" transform="rotate(-0 38.78001 128.528156)">S3</text>
   </g>
   <g id="text_24">
    <text style="font-weight: 700; font-size: 5.65px; font-family: 'DejaVu Serif', serif; fill: #15191f" transform="translate(51.49404 125.092505)">Drug response /</text>
    <text style="font-weight: 700; font-size: 5.65px; font-family: 'DejaVu Serif', serif; fill: #15191f" transform="translate(51.49404 131.499605)">pharmacogenomics</text>
   </g>
   <g id="text_25">
    <text style="font-weight: 700; font-size: 5.6px; font-family: 'DejaVu Sans Mono', monospace; text-anchor: end; fill: #15191f" x="240.15384" y="128.362594" transform="rotate(-0 240.15384 128.362594)">11</text>
   </g>
   <g id="text_26">
    <text style="font-weight: 700; font-size: 5px; font-family: 'DejaVu Sans Mono', monospace; text-anchor: middle; fill: #ffffff" x="272.96424" y="128.3275" transform="rotate(-0 272.96424 128.3275)">Diversify</text>
   </g>
   <g id="text_27">
    <text style="font-size: 5.55px; font-family: 'DejaVu Serif', serif; text-anchor: start; fill: #15191f" x="308.64555" y="128.30934" transform="rotate(-0 308.64555 128.30934)">mostly PRISM</text>
   </g>
   <g id="text_28">
    <text style="font-weight: 700; font-size: 6.2px; font-family: 'DejaVu Sans Mono', monospace; text-anchor: middle; fill: #ffffff" x="38.78001" y="146.831672" transform="rotate(-0 38.78001 146.831672)">S4</text>
   </g>
   <g id="text_29">
    <text style="font-weight: 700; font-size: 5.65px; font-family: 'DejaVu Serif', serif; fill: #15191f" transform="translate(51.49404 143.436189)">Human genetic</text>
    <text style="font-weight: 700; font-size: 5.65px; font-family: 'DejaVu Serif', serif; fill: #15191f" transform="translate(51.49404 149.843289)">target support</text>
   </g>
   <g id="text_30">
    <text style="font-weight: 700; font-size: 5.6px; font-family: 'DejaVu Sans Mono', monospace; text-anchor: end; fill: #15191f" x="240.15384" y="146.66611" transform="rotate(-0 240.15384 146.66611)">0</text>
   </g>
   <g id="text_31">
    <text style="font-weight: 700; font-size: 5px; font-family: 'DejaVu Sans Mono', monospace; text-anchor: middle; fill: #ffffff" x="272.96424" y="146.500547" transform="rotate(-0 272.96424 146.500547)">Deferred</text>
   </g>
   <g id="text_32">
    <text style="font-size: 5.55px; font-family: 'DejaVu Serif', serif; text-anchor: start; fill: #5f6872" x="308.64555" y="146.652313" transform="rotate(-0 308.64555 146.652313)">GenomicsBench</text>
   </g>
   <g id="text_33">
    <text style="font-weight: 700; font-size: 6.2px; font-family: 'DejaVu Sans Mono', monospace; text-anchor: middle; fill: #ffffff" x="38.78001" y="165.135188" transform="rotate(-0 38.78001 165.135188)">S5</text>
   </g>
   <g id="text_34">
    <text style="font-weight: 700; font-size: 5.65px; font-family: 'DejaVu Serif', serif; fill: #15191f" transform="translate(51.49404 161.779873)">Causal target</text>
    <text style="font-weight: 700; font-size: 5.65px; font-family: 'DejaVu Serif', serif; fill: #15191f" transform="translate(51.49404 168.186973)">validation</text>
   </g>
   <g id="text_35">
    <text style="font-weight: 700; font-size: 5.6px; font-family: 'DejaVu Sans Mono', monospace; text-anchor: end; fill: #15191f" x="240.15384" y="164.969626" transform="rotate(-0 240.15384 164.969626)">12</text>
   </g>
   <g id="text_36">
    <text style="font-weight: 700; font-size: 5px; font-family: 'DejaVu Sans Mono', monospace; text-anchor: middle; fill: #ffffff" x="272.96424" y="164.804063" transform="rotate(-0 272.96424 164.804063)">Ready</text>
   </g>
   <g id="text_37">
    <text style="font-size: 5.55px; font-family: 'DejaVu Serif', serif; text-anchor: start; fill: #15191f" x="308.64555" y="164.876915" transform="rotate(-0 308.64555 164.876915)">v1 coverage</text>
   </g>
   <g id="text_38">
    <text style="font-weight: 700; font-size: 6.2px; font-family: 'DejaVu Sans Mono', monospace; text-anchor: middle; fill: #ffffff" x="38.78001" y="183.438705" transform="rotate(-0 38.78001 183.438705)">S6</text>
   </g>
   <g id="text_39">
    <text style="font-weight: 700; font-size: 5.65px; font-family: 'DejaVu Serif', serif; fill: #15191f" transform="translate(51.49404 180.123557)">Perturbational</text>
    <text style="font-weight: 700; font-size: 5.65px; font-family: 'DejaVu Serif', serif; fill: #15191f" transform="translate(51.49404 186.450321)">MoA / PD</text>
   </g>
   <g id="text_40">
    <text style="font-weight: 700; font-size: 5.6px; font-family: 'DejaVu Sans Mono', monospace; text-anchor: end; fill: #15191f" x="240.15384" y="183.273142" transform="rotate(-0 240.15384 183.273142)">17</text>
   </g>
   <g id="text_41">
    <text style="font-weight: 700; font-size: 5px; font-family: 'DejaVu Sans Mono', monospace; text-anchor: middle; fill: #ffffff" x="272.96424" y="183.107579" transform="rotate(-0 272.96424 183.107579)">Ready</text>
   </g>
   <g id="text_42">
    <text style="font-size: 5.55px; font-family: 'DejaVu Serif', serif; text-anchor: start; fill: #15191f" x="308.64555" y="183.180431" transform="rotate(-0 308.64555 183.180431)">strongest coverage</text>
   </g>
   <g id="text_43">
    <text style="font-weight: 700; font-size: 6.2px; font-family: 'DejaVu Sans Mono', monospace; text-anchor: middle; fill: #ffffff" x="38.78001" y="201.742221" transform="rotate(-0 38.78001 201.742221)">S7</text>
   </g>
   <g id="text_44">
    <text style="font-weight: 700; font-size: 5.65px; font-family: 'DejaVu Serif', serif; fill: #15191f" transform="translate(51.49404 198.386905)">Compound-target</text>
    <text style="font-weight: 700; font-size: 5.65px; font-family: 'DejaVu Serif', serif; fill: #15191f" transform="translate(51.49404 204.794005)">characterization</text>
   </g>
   <g id="text_45">
    <text style="font-weight: 700; font-size: 5.6px; font-family: 'DejaVu Sans Mono', monospace; text-anchor: end; fill: #15191f" x="240.15384" y="201.576658" transform="rotate(-0 240.15384 201.576658)">1</text>
   </g>
   <g id="text_46">
    <text style="font-weight: 700; font-size: 5px; font-family: 'DejaVu Sans Mono', monospace; text-anchor: middle; fill: #ffffff" x="272.96424" y="201.411095" transform="rotate(-0 272.96424 201.411095)">Build</text>
   </g>
   <g id="text_47">
    <text style="font-size: 5.55px; font-family: 'DejaVu Serif', serif; text-anchor: start; fill: #15191f" x="308.64555" y="201.523404" transform="rotate(-0 308.64555 201.523404)">largest gap</text>
   </g>
   <g id="text_48">
    <text style="font-weight: 700; font-size: 6.2px; font-family: 'DejaVu Sans Mono', monospace; text-anchor: middle; fill: #ffffff" x="38.78001" y="220.045737" transform="rotate(-0 38.78001 220.045737)">S8</text>
   </g>
   <g id="text_49">
    <text style="font-weight: 700; font-size: 5.65px; font-family: 'DejaVu Serif', serif; fill: #15191f" transform="translate(51.49404 216.650253)">Developability</text>
    <text style="font-weight: 700; font-size: 5.65px; font-family: 'DejaVu Serif', serif; fill: #15191f" transform="translate(51.49404 223.057353)">&amp; safety</text>
   </g>
   <g id="text_50">
    <text style="font-weight: 700; font-size: 5.6px; font-family: 'DejaVu Sans Mono', monospace; text-anchor: end; fill: #15191f" x="240.15384" y="219.880174" transform="rotate(-0 240.15384 219.880174)">16</text>
   </g>
   <g id="text_51">
    <text style="font-weight: 700; font-size: 5px; font-family: 'DejaVu Sans Mono', monospace; text-anchor: middle; fill: #ffffff" x="272.96424" y="219.84508" transform="rotate(-0 272.96424 219.84508)">Diversify</text>
   </g>
   <g id="text_52">
    <text style="font-size: 5.55px; font-family: 'DejaVu Serif', serif; text-anchor: start; fill: #15191f" x="308.64555" y="219.82692" transform="rotate(-0 308.64555 219.82692)">cardiotox-heavy</text>
   </g>
   <g id="text_53">
    <text style="font-weight: 700; font-size: 6.2px; font-family: 'DejaVu Sans Mono', monospace; text-anchor: middle; fill: #ffffff" x="38.78001" y="238.349253" transform="rotate(-0 38.78001 238.349253)">S9</text>
   </g>
   <g id="text_54">
    <text style="font-weight: 700; font-size: 5.65px; font-family: 'DejaVu Serif', serif; fill: #15191f" transform="translate(51.49404 234.993937)">Translational</text>
    <text style="font-weight: 700; font-size: 5.65px; font-family: 'DejaVu Serif', serif; fill: #15191f" transform="translate(51.49404 241.320701)">efficacy</text>
   </g>
   <g id="text_55">
    <text style="font-weight: 700; font-size: 5.6px; font-family: 'DejaVu Sans Mono', monospace; text-anchor: end; fill: #15191f" x="240.15384" y="238.18369" transform="rotate(-0 240.15384 238.18369)">6</text>
   </g>
   <g id="text_56">
    <text style="font-weight: 700; font-size: 5px; font-family: 'DejaVu Sans Mono', monospace; text-anchor: middle; fill: #ffffff" x="272.96424" y="238.148596" transform="rotate(-0 272.96424 238.148596)">Diversify</text>
   </g>
   <g id="text_57">
    <text style="font-size: 5.55px; font-family: 'DejaVu Serif', serif; text-anchor: start; fill: #15191f" x="308.64555" y="238.169893" transform="rotate(-0 308.64555 238.169893)">one NSCLC source</text>
   </g>
   <g id="text_58">
    <text style="font-size: 5.8px; font-family: 'DejaVu Serif', serif; text-anchor: start; fill: #5f6872" x="27.7065" y="258.821323" transform="rotate(-0 27.7065 258.821323)">Counts and statuses are from the Assays Roadmap coverage mapping. S1 and S4 are intentionally deferred for this release.</text>
   </g>
  </g>
 </g>
 <defs>
  <clipPath id="p512a133e7c">
   <rect x="7.2" y="7.2" width="410.13" height="257.796"/>
  </clipPath>
 </defs>
</svg>
