<?xml version="1.0" encoding="utf-8" standalone="no"?>
<!DOCTYPE svg PUBLIC "-//W3C//DTD SVG 1.1//EN"
  "http://www.w3.org/Graphics/SVG/1.1/DTD/svg11.dtd">
<svg xmlns:xlink="http://www.w3.org/1999/xlink" width="448.773738pt" height="305.46pt" viewBox="0 0 448.773738 305.46" xmlns="http://www.w3.org/2000/svg" version="1.1">
 <metadata>
  <rdf:RDF xmlns:dc="http://purl.org/dc/elements/1.1/" xmlns:cc="http://creativecommons.org/ns#" xmlns:rdf="http://www.w3.org/1999/02/22-rdf-syntax-ns#">
   <cc:Work>
    <dc:type rdf:resource="http://purl.org/dc/dcmitype/StillImage"/>
    <dc:date>2026-06-16T18:35:29.714197</dc:date>
    <dc:format>image/svg+xml</dc:format>
    <dc:creator>
     <cc:Agent>
      <dc:title>Matplotlib v3.10.8, https://matplotlib.org/</dc:title>
     </cc:Agent>
    </dc:creator>
   </cc:Work>
  </rdf:RDF>
 </metadata>
 <defs>
  <style type="text/css">*{stroke-linejoin: round; stroke-linecap: butt}</style>
 </defs>
 <g id="figure_1">
  <g id="patch_1">
   <path d="M 0 305.46 
L 448.773738 305.46 
L 448.773738 0 
L 0 0 
z
" style="fill: #ffffff"/>
  </g>
  <g id="axes_1">
   <g id="patch_2">
    <path d="M 28.11663 166.11876 
L 396.41337 166.11876 
Q 402.15519 166.11876 402.15519 162.04392 
L 402.15519 53.47854 
Q 402.15519 49.4037 396.41337 49.4037 
L 28.11663 49.4037 
Q 22.37481 49.4037 22.37481 53.47854 
L 22.37481 162.04392 
Q 22.37481 166.11876 28.11663 166.11876 
z
" clip-path="url(#pa9f36f9147)" style="fill: #ffffff; stroke: #ddd7cb; stroke-width: 0.55; stroke-linejoin: miter"/>
   </g>
   <g id="patch_3">
    <path d="M 37.54962 102.08556 
L 142.5429 102.08556 
Q 148.28472 102.08556 148.28472 98.01072 
L 148.28472 79.67394 
Q 148.28472 75.5991 142.5429 75.5991 
L 37.54962 75.5991 
Q 31.8078 75.5991 31.8078 79.67394 
L 31.8078 98.01072 
Q 31.8078 102.08556 37.54962 102.08556 
z
" clip-path="url(#pa9f36f9147)" style="fill: #fbfaf6; stroke: #8d867e; stroke-width: 0.7; stroke-linejoin: miter"/>
   </g>
   <g id="patch_4">
    <path d="M 40.0104 96.84648 
L 55.59534 96.84648 
Q 58.87638 96.84648 58.87638 94.518 
L 58.87638 83.16666 
Q 58.87638 80.83818 55.59534 80.83818 
L 40.0104 80.83818 
Q 36.72936 80.83818 36.72936 83.16666 
L 36.72936 94.518 
Q 36.72936 96.84648 40.0104 96.84648 
z
" clip-path="url(#pa9f36f9147)" style="fill: #8d867e"/>
   </g>
   <g id="patch_5">
    <path d="M 161.81901 102.08556 
L 266.81229 102.08556 
Q 272.55411 102.08556 272.55411 98.01072 
L 272.55411 79.67394 
Q 272.55411 75.5991 266.81229 75.5991 
L 161.81901 75.5991 
Q 156.07719 75.5991 156.07719 79.67394 
L 156.07719 98.01072 
Q 156.07719 102.08556 161.81901 102.08556 
z
" clip-path="url(#pa9f36f9147)" style="fill: #fbfaf6; stroke: #b89142; stroke-width: 0.7; stroke-linejoin: miter"/>
   </g>
   <g id="patch_6">
    <path d="M 164.27979 96.84648 
L 179.86473 96.84648 
Q 183.14577 96.84648 183.14577 94.518 
L 183.14577 83.16666 
Q 183.14577 80.83818 179.86473 80.83818 
L 164.27979 80.83818 
Q 160.99875 80.83818 160.99875 83.16666 
L 160.99875 94.518 
Q 160.99875 96.84648 164.27979 96.84648 
z
" clip-path="url(#pa9f36f9147)" style="fill: #b89142"/>
   </g>
   <g id="patch_7">
    <path d="M 286.0884 102.08556 
L 391.08168 102.08556 
Q 396.8235 102.08556 396.8235 98.01072 
L 396.8235 79.67394 
Q 396.8235 75.5991 391.08168 75.5991 
L 286.0884 75.5991 
Q 280.34658 75.5991 280.34658 79.67394 
L 280.34658 98.01072 
Q 280.34658 102.08556 286.0884 102.08556 
z
" clip-path="url(#pa9f36f9147)" style="fill: #fbfaf6; stroke: #b89142; stroke-width: 0.7; stroke-linejoin: miter"/>
   </g>
   <g id="patch_8">
    <path d="M 288.54918 96.84648 
L 304.13412 96.84648 
Q 307.41516 96.84648 307.41516 94.518 
L 307.41516 83.16666 
Q 307.41516 80.83818 304.13412 80.83818 
L 288.54918 80.83818 
Q 285.26814 80.83818 285.26814 83.16666 
L 285.26814 94.518 
Q 285.26814 96.84648 288.54918 96.84648 
z
" clip-path="url(#pa9f36f9147)" style="fill: #b89142"/>
   </g>
   <g id="patch_9">
    <path d="M 37.54962 131.77368 
L 142.5429 131.77368 
Q 148.28472 131.77368 148.28472 127.69884 
L 148.28472 109.36206 
Q 148.28472 105.28722 142.5429 105.28722 
L 37.54962 105.28722 
Q 31.8078 105.28722 31.8078 109.36206 
L 31.8078 127.69884 
Q 31.8078 131.77368 37.54962 131.77368 
z
" clip-path="url(#pa9f36f9147)" style="fill: #f0eee9; stroke: #ddd7cb; stroke-width: 0.7; stroke-linejoin: miter"/>
   </g>
   <g id="patch_10">
    <path d="M 40.0104 126.5346 
L 55.59534 126.5346 
Q 58.87638 126.5346 58.87638 124.20612 
L 58.87638 112.85478 
Q 58.87638 110.5263 55.59534 110.5263 
L 40.0104 110.5263 
Q 36.72936 110.5263 36.72936 112.85478 
L 36.72936 124.20612 
Q 36.72936 126.5346 40.0104 126.5346 
z
" clip-path="url(#pa9f36f9147)" style="fill: #b8b2aa"/>
   </g>
   <g id="patch_11">
    <path d="M 161.81901 131.77368 
L 266.81229 131.77368 
Q 272.55411 131.77368 272.55411 127.69884 
L 272.55411 109.36206 
Q 272.55411 105.28722 266.81229 105.28722 
L 161.81901 105.28722 
Q 156.07719 105.28722 156.07719 109.36206 
L 156.07719 127.69884 
Q 156.07719 131.77368 161.81901 131.77368 
z
" clip-path="url(#pa9f36f9147)" style="fill: #fbfaf6; stroke: #2a9d8f; stroke-width: 0.7; stroke-linejoin: miter"/>
   </g>
   <g id="patch_12">
    <path d="M 164.27979 126.5346 
L 179.86473 126.5346 
Q 183.14577 126.5346 183.14577 124.20612 
L 183.14577 112.85478 
Q 183.14577 110.5263 179.86473 110.5263 
L 164.27979 110.5263 
Q 160.99875 110.5263 160.99875 112.85478 
L 160.99875 124.20612 
Q 160.99875 126.5346 164.27979 126.5346 
z
" clip-path="url(#pa9f36f9147)" style="fill: #2a9d8f"/>
   </g>
   <g id="patch_13">
    <path d="M 286.0884 131.77368 
L 391.08168 131.77368 
Q 396.8235 131.77368 396.8235 127.69884 
L 396.8235 109.36206 
Q 396.8235 105.28722 391.08168 105.28722 
L 286.0884 105.28722 
Q 280.34658 105.28722 280.34658 109.36206 
L 280.34658 127.69884 
Q 280.34658 131.77368 286.0884 131.77368 
z
" clip-path="url(#pa9f36f9147)" style="fill: #fbfaf6; stroke: #a95f3d; stroke-width: 0.7; stroke-linejoin: miter"/>
   </g>
   <g id="patch_14">
    <path d="M 288.54918 126.5346 
L 304.13412 126.5346 
Q 307.41516 126.5346 307.41516 124.20612 
L 307.41516 112.85478 
Q 307.41516 110.5263 304.13412 110.5263 
L 288.54918 110.5263 
Q 285.26814 110.5263 285.26814 112.85478 
L 285.26814 124.20612 
Q 285.26814 126.5346 288.54918 126.5346 
z
" clip-path="url(#pa9f36f9147)" style="fill: #a95f3d"/>
   </g>
   <g id="patch_15">
    <path d="M 37.54962 161.4618 
L 142.5429 161.4618 
Q 148.28472 161.4618 148.28472 157.38696 
L 148.28472 139.05018 
Q 148.28472 134.97534 142.5429 134.97534 
L 37.54962 134.97534 
Q 31.8078 134.97534 31.8078 139.05018 
L 31.8078 157.38696 
Q 31.8078 161.4618 37.54962 161.4618 
z
" clip-path="url(#pa9f36f9147)" style="fill: #fbfaf6; stroke: #d14b4b; stroke-width: 0.7; stroke-linejoin: miter"/>
   </g>
   <g id="patch_16">
    <path d="M 40.0104 156.22272 
L 55.59534 156.22272 
Q 58.87638 156.22272 58.87638 153.89424 
L 58.87638 142.5429 
Q 58.87638 140.21442 55.59534 140.21442 
L 40.0104 140.21442 
Q 36.72936 140.21442 36.72936 142.5429 
L 36.72936 153.89424 
Q 36.72936 156.22272 40.0104 156.22272 
z
" clip-path="url(#pa9f36f9147)" style="fill: #d14b4b"/>
   </g>
   <g id="patch_17">
    <path d="M 161.81901 161.4618 
L 266.81229 161.4618 
Q 272.55411 161.4618 272.55411 157.38696 
L 272.55411 139.05018 
Q 272.55411 134.97534 266.81229 134.97534 
L 161.81901 134.97534 
Q 156.07719 134.97534 156.07719 139.05018 
L 156.07719 157.38696 
Q 156.07719 161.4618 161.81901 161.4618 
z
" clip-path="url(#pa9f36f9147)" style="fill: #fbfaf6; stroke: #d14b4b; stroke-width: 0.7; stroke-linejoin: miter"/>
   </g>
   <g id="patch_18">
    <path d="M 164.27979 156.22272 
L 179.86473 156.22272 
Q 183.14577 156.22272 183.14577 153.89424 
L 183.14577 142.5429 
Q 183.14577 140.21442 179.86473 140.21442 
L 164.27979 140.21442 
Q 160.99875 140.21442 160.99875 142.5429 
L 160.99875 153.89424 
Q 160.99875 156.22272 164.27979 156.22272 
z
" clip-path="url(#pa9f36f9147)" style="fill: #d14b4b"/>
   </g>
   <g id="patch_19">
    <path d="M 286.0884 161.4618 
L 391.08168 161.4618 
Q 396.8235 161.4618 396.8235 157.38696 
L 396.8235 139.05018 
Q 396.8235 134.97534 391.08168 134.97534 
L 286.0884 134.97534 
Q 280.34658 134.97534 280.34658 139.05018 
L 280.34658 157.38696 
Q 280.34658 161.4618 286.0884 161.4618 
z
" clip-path="url(#pa9f36f9147)" style="fill: #fbfaf6; stroke: #7267c8; stroke-width: 0.7; stroke-linejoin: miter"/>
   </g>
   <g id="patch_20">
    <path d="M 288.54918 156.22272 
L 304.13412 156.22272 
Q 307.41516 156.22272 307.41516 153.89424 
L 307.41516 142.5429 
Q 307.41516 140.21442 304.13412 140.21442 
L 288.54918 140.21442 
Q 285.26814 140.21442 285.26814 142.5429 
L 285.26814 153.89424 
Q 285.26814 156.22272 288.54918 156.22272 
z
" clip-path="url(#pa9f36f9147)" style="fill: #7267c8"/>
   </g>
   <g id="patch_21">
    <path d="M 28.11663 270.02718 
L 203.65227 270.02718 
Q 209.39409 270.02718 209.39409 265.95234 
L 209.39409 180.67176 
Q 209.39409 176.59692 203.65227 176.59692 
L 28.11663 176.59692 
Q 22.37481 176.59692 22.37481 180.67176 
L 22.37481 265.95234 
Q 22.37481 270.02718 28.11663 270.02718 
z
" clip-path="url(#pa9f36f9147)" style="fill: #ffffff; stroke: #ddd7cb; stroke-width: 0.55; stroke-linejoin: miter"/>
   </g>
   <g id="patch_22">
    <path d="M 122.0364 208.0314 
L 165.10005 208.0314 
L 165.10005 204.82974 
L 122.0364 204.82974 
z
" clip-path="url(#pa9f36f9147)" style="fill: #ece7df"/>
   </g>
   <g id="patch_23">
    <path d="M 122.0364 208.0314 
L 165.10005 208.0314 
L 165.10005 204.82974 
L 122.0364 204.82974 
z
" clip-path="url(#pa9f36f9147)" style="fill: #a95f3d"/>
   </g>
   <g id="patch_24">
    <path d="M 122.0364 215.59896 
L 165.10005 215.59896 
L 165.10005 212.3973 
L 122.0364 212.3973 
z
" clip-path="url(#pa9f36f9147)" style="fill: #ece7df"/>
   </g>
   <g id="patch_25">
    <path d="M 122.0364 215.59896 
L 155.312857 215.59896 
L 155.312857 212.3973 
L 122.0364 212.3973 
z
" clip-path="url(#pa9f36f9147)" style="fill: #7267c8"/>
   </g>
   <g id="patch_26">
    <path d="M 122.0364 223.16652 
L 165.10005 223.16652 
L 165.10005 219.96486 
L 122.0364 219.96486 
z
" clip-path="url(#pa9f36f9147)" style="fill: #ece7df"/>
   </g>
   <g id="patch_27">
    <path d="M 122.0364 223.16652 
L 153.355418 223.16652 
L 153.355418 219.96486 
L 122.0364 219.96486 
z
" clip-path="url(#pa9f36f9147)" style="fill: #7267c8"/>
   </g>
   <g id="patch_28">
    <path d="M 122.0364 230.73408 
L 165.10005 230.73408 
L 165.10005 227.53242 
L 122.0364 227.53242 
z
" clip-path="url(#pa9f36f9147)" style="fill: #ece7df"/>
   </g>
   <g id="patch_29">
    <path d="M 122.0364 230.73408 
L 145.525664 230.73408 
L 145.525664 227.53242 
L 122.0364 227.53242 
z
" clip-path="url(#pa9f36f9147)" style="fill: #2a9d8f"/>
   </g>
   <g id="patch_30">
    <path d="M 122.0364 238.30164 
L 165.10005 238.30164 
L 165.10005 235.09998 
L 122.0364 235.09998 
z
" clip-path="url(#pa9f36f9147)" style="fill: #ece7df"/>
   </g>
   <g id="patch_31">
    <path d="M 122.0364 238.30164 
L 143.568225 238.30164 
L 143.568225 235.09998 
L 122.0364 235.09998 
z
" clip-path="url(#pa9f36f9147)" style="fill: #b89142"/>
   </g>
   <g id="patch_32">
    <path d="M 122.0364 245.8692 
L 165.10005 245.8692 
L 165.10005 242.66754 
L 122.0364 242.66754 
z
" clip-path="url(#pa9f36f9147)" style="fill: #ece7df"/>
   </g>
   <g id="patch_33">
    <path d="M 122.0364 245.8692 
L 137.695909 245.8692 
L 137.695909 242.66754 
L 122.0364 242.66754 
z
" clip-path="url(#pa9f36f9147)" style="fill: #2a9d8f"/>
   </g>
   <g id="patch_34">
    <path d="M 122.0364 253.43676 
L 165.10005 253.43676 
L 165.10005 250.2351 
L 122.0364 250.2351 
z
" clip-path="url(#pa9f36f9147)" style="fill: #ece7df"/>
   </g>
   <g id="patch_35">
    <path d="M 122.0364 253.43676 
L 135.73847 253.43676 
L 135.73847 250.2351 
L 122.0364 250.2351 
z
" clip-path="url(#pa9f36f9147)" style="fill: #d14b4b"/>
   </g>
   <g id="patch_36">
    <path d="M 122.0364 261.00432 
L 165.10005 261.00432 
L 165.10005 257.80266 
L 122.0364 257.80266 
z
" clip-path="url(#pa9f36f9147)" style="fill: #ece7df"/>
   </g>
   <g id="patch_37">
    <path d="M 122.0364 261.00432 
L 135.73847 261.00432 
L 135.73847 257.80266 
L 122.0364 257.80266 
z
" clip-path="url(#pa9f36f9147)" style="fill: #8d867e"/>
   </g>
   <g id="patch_38">
    <path d="M 220.87773 270.02718 
L 396.41337 270.02718 
Q 402.15519 270.02718 402.15519 265.95234 
L 402.15519 180.67176 
Q 402.15519 176.59692 396.41337 176.59692 
L 220.87773 176.59692 
Q 215.13591 176.59692 215.13591 180.67176 
L 215.13591 265.95234 
Q 215.13591 270.02718 220.87773 270.02718 
z
" clip-path="url(#pa9f36f9147)" style="fill: #ffffff; stroke: #ddd7cb; stroke-width: 0.55; stroke-linejoin: miter"/>
   </g>
   <g id="patch_39">
    <path d="M 294.291 206.5761 
L 340.22556 206.5761 
L 340.22556 204.24762 
L 294.291 204.24762 
z
" clip-path="url(#pa9f36f9147)" style="fill: #ece7df"/>
   </g>
   <g id="patch_40">
    <path d="M 294.291 206.5761 
L 340.22556 206.5761 
L 340.22556 204.24762 
L 294.291 204.24762 
z
" clip-path="url(#pa9f36f9147)" style="fill: #a95f3d"/>
   </g>
   <g id="patch_41">
    <path d="M 294.291 210.592728 
L 340.22556 210.592728 
L 340.22556 208.264248 
L 294.291 208.264248 
z
" clip-path="url(#pa9f36f9147)" style="fill: #ece7df"/>
   </g>
   <g id="patch_42">
    <path d="M 294.291 210.592728 
L 317.25828 210.592728 
L 317.25828 208.264248 
L 294.291 208.264248 
z
" clip-path="url(#pa9f36f9147)" style="fill: #b89142"/>
   </g>
   <g id="patch_43">
    <path d="M 294.291 214.609356 
L 340.22556 214.609356 
L 340.22556 212.280876 
L 294.291 212.280876 
z
" clip-path="url(#pa9f36f9147)" style="fill: #ece7df"/>
   </g>
   <g id="patch_44">
    <path d="M 294.291 214.609356 
L 317.25828 214.609356 
L 317.25828 212.280876 
L 294.291 212.280876 
z
" clip-path="url(#pa9f36f9147)" style="fill: #2a9d8f"/>
   </g>
   <g id="patch_45">
    <path d="M 294.291 218.625984 
L 340.22556 218.625984 
L 340.22556 216.297504 
L 294.291 216.297504 
z
" clip-path="url(#pa9f36f9147)" style="fill: #ece7df"/>
   </g>
   <g id="patch_46">
    <path d="M 294.291 218.625984 
L 317.25828 218.625984 
L 317.25828 216.297504 
L 294.291 216.297504 
z
" clip-path="url(#pa9f36f9147)" style="fill: #2a9d8f"/>
   </g>
   <g id="patch_47">
    <path d="M 294.291 222.642612 
L 340.22556 222.642612 
L 340.22556 220.314132 
L 294.291 220.314132 
z
" clip-path="url(#pa9f36f9147)" style="fill: #ece7df"/>
   </g>
   <g id="patch_48">
    <path d="M 294.291 222.642612 
L 317.25828 222.642612 
L 317.25828 220.314132 
L 294.291 220.314132 
z
" clip-path="url(#pa9f36f9147)" style="fill: #d14b4b"/>
   </g>
   <g id="patch_49">
    <path d="M 294.291 226.65924 
L 340.22556 226.65924 
L 340.22556 224.33076 
L 294.291 224.33076 
z
" clip-path="url(#pa9f36f9147)" style="fill: #ece7df"/>
   </g>
   <g id="patch_50">
    <path d="M 294.291 226.65924 
L 313.97724 226.65924 
L 313.97724 224.33076 
L 294.291 224.33076 
z
" clip-path="url(#pa9f36f9147)" style="fill: #7267c8"/>
   </g>
   <g id="patch_51">
    <path d="M 294.291 230.675868 
L 340.22556 230.675868 
L 340.22556 228.347388 
L 294.291 228.347388 
z
" clip-path="url(#pa9f36f9147)" style="fill: #ece7df"/>
   </g>
   <g id="patch_52">
    <path d="M 294.291 230.675868 
L 313.97724 230.675868 
L 313.97724 228.347388 
L 294.291 228.347388 
z
" clip-path="url(#pa9f36f9147)" style="fill: #7267c8"/>
   </g>
   <g id="patch_53">
    <path d="M 294.291 234.692496 
L 340.22556 234.692496 
L 340.22556 232.364016 
L 294.291 232.364016 
z
" clip-path="url(#pa9f36f9147)" style="fill: #ece7df"/>
   </g>
   <g id="patch_54">
    <path d="M 294.291 234.692496 
L 313.97724 234.692496 
L 313.97724 232.364016 
L 294.291 232.364016 
z
" clip-path="url(#pa9f36f9147)" style="fill: #7267c8"/>
   </g>
   <g id="patch_55">
    <path d="M 294.291 238.709124 
L 340.22556 238.709124 
L 340.22556 236.380644 
L 294.291 236.380644 
z
" clip-path="url(#pa9f36f9147)" style="fill: #ece7df"/>
   </g>
   <g id="patch_56">
    <path d="M 294.291 238.709124 
L 310.6962 238.709124 
L 310.6962 236.380644 
L 294.291 236.380644 
z
" clip-path="url(#pa9f36f9147)" style="fill: #b89142"/>
   </g>
   <g id="patch_57">
    <path d="M 294.291 242.725752 
L 340.22556 242.725752 
L 340.22556 240.397272 
L 294.291 240.397272 
z
" clip-path="url(#pa9f36f9147)" style="fill: #ece7df"/>
   </g>
   <g id="patch_58">
    <path d="M 294.291 242.725752 
L 310.6962 242.725752 
L 310.6962 240.397272 
L 294.291 240.397272 
z
" clip-path="url(#pa9f36f9147)" style="fill: #8d867e"/>
   </g>
   <g id="patch_59">
    <path d="M 294.291 246.74238 
L 340.22556 246.74238 
L 340.22556 244.4139 
L 294.291 244.4139 
z
" clip-path="url(#pa9f36f9147)" style="fill: #ece7df"/>
   </g>
   <g id="patch_60">
    <path d="M 294.291 246.74238 
L 307.41516 246.74238 
L 307.41516 244.4139 
L 294.291 244.4139 
z
" clip-path="url(#pa9f36f9147)" style="fill: #a95f3d"/>
   </g>
   <g id="patch_61">
    <path d="M 294.291 250.759008 
L 340.22556 250.759008 
L 340.22556 248.430528 
L 294.291 248.430528 
z
" clip-path="url(#pa9f36f9147)" style="fill: #ece7df"/>
   </g>
   <g id="patch_62">
    <path d="M 294.291 250.759008 
L 307.41516 250.759008 
L 307.41516 248.430528 
L 294.291 248.430528 
z
" clip-path="url(#pa9f36f9147)" style="fill: #2a9d8f"/>
   </g>
   <g id="patch_63">
    <path d="M 294.291 254.775636 
L 340.22556 254.775636 
L 340.22556 252.447156 
L 294.291 252.447156 
z
" clip-path="url(#pa9f36f9147)" style="fill: #ece7df"/>
   </g>
   <g id="patch_64">
    <path d="M 294.291 254.775636 
L 307.41516 254.775636 
L 307.41516 252.447156 
L 294.291 252.447156 
z
" clip-path="url(#pa9f36f9147)" style="fill: #d14b4b"/>
   </g>
   <g id="patch_65">
    <path d="M 294.291 258.792264 
L 340.22556 258.792264 
L 340.22556 256.463784 
L 294.291 256.463784 
z
" clip-path="url(#pa9f36f9147)" style="fill: #ece7df"/>
   </g>
   <g id="patch_66">
    <path d="M 294.291 258.792264 
L 307.41516 258.792264 
L 307.41516 256.463784 
L 294.291 256.463784 
z
" clip-path="url(#pa9f36f9147)" style="fill: #b89142"/>
   </g>
   <g id="patch_67">
    <path d="M 294.291 262.808892 
L 340.22556 262.808892 
L 340.22556 260.480412 
L 294.291 260.480412 
z
" clip-path="url(#pa9f36f9147)" style="fill: #ece7df"/>
   </g>
   <g id="patch_68">
    <path d="M 294.291 262.808892 
L 340.22556 262.808892 
L 340.22556 260.480412 
L 294.291 260.480412 
z
" clip-path="url(#pa9f36f9147)" style="fill: #b8b2aa"/>
   </g>
   <g id="text_1">
    <text style="font-weight: 700; font-size: 10.4px; font-family: 'DejaVu Serif', serif; text-anchor: start; fill: #15191f" x="29.75715" y="22.220332" transform="rotate(-0 29.75715 22.220332)">Benchmark anatomy</text>
   </g>
   <g id="text_2">
    <text style="font-size: 6.9px; font-family: 'DejaVu Serif', serif; text-anchor: start; fill: #5f6872" x="29.75715" y="34.086074" transform="rotate(-0 29.75715 34.086074)">Program stage locates the decision; assay type and task structure describe the data and work required.</text>
   </g>
   <g id="text_3">
    <text style="font-weight: 700; font-size: 7px; font-family: 'DejaVu Sans Mono', monospace; text-anchor: start; fill: #a95f3d" x="33.03819" y="62.104482" transform="rotate(-0 33.03819 62.104482)">A</text>
   </g>
   <g id="text_4">
    <text style="font-weight: 700; font-size: 7px; font-family: 'DejaVu Serif', serif; text-anchor: start; fill: #15191f" x="42.47118" y="62.004951" transform="rotate(-0 42.47118 62.004951)">Program stage</text>
   </g>
   <g id="text_5">
    <text style="font-weight: 700; font-size: 4.7px; font-family: 'DejaVu Sans Mono', monospace; text-anchor: middle; fill: #ffffff" x="47.80287" y="89.993706" transform="rotate(-0 47.80287 89.993706)">S1</text>
   </g>
   <g id="text_6">
    <text style="font-weight: 700; font-size: 5.1px; font-family: 'DejaVu Serif', serif; fill: #15191f" transform="translate(60.5169 84.629099)">Disease / model</text>
    <text style="font-weight: 700; font-size: 5.1px; font-family: 'DejaVu Serif', serif; fill: #15191f" transform="translate(60.5169 90.339983)">characterization</text>
   </g>
   <g id="text_7">
    <text style="font-weight: 700; font-size: 4.6px; font-family: 'DejaVu Sans Mono', monospace; text-anchor: end; fill: #15191f" x="140.08212" y="95.205192" transform="rotate(-0 140.08212 95.205192)">n=4</text>
   </g>
   <g id="text_8">
    <text style="font-weight: 700; font-size: 4.7px; font-family: 'DejaVu Sans Mono', monospace; text-anchor: middle; fill: #ffffff" x="172.07226" y="89.993706" transform="rotate(-0 172.07226 89.993706)">S2</text>
   </g>
   <g id="text_9">
    <text style="font-weight: 700; font-size: 5.1px; font-family: 'DejaVu Serif', serif; fill: #15191f" transform="translate(184.78629 84.592841)">Screening / hit</text>
    <text style="font-weight: 700; font-size: 5.1px; font-family: 'DejaVu Serif', serif; fill: #15191f" transform="translate(184.78629 90.376241)">confirmation</text>
   </g>
   <g id="text_10">
    <text style="font-weight: 700; font-size: 4.6px; font-family: 'DejaVu Sans Mono', monospace; text-anchor: end; fill: #15191f" x="264.35151" y="95.205192" transform="rotate(-0 264.35151 95.205192)">n=8</text>
   </g>
   <g id="text_11">
    <text style="font-weight: 700; font-size: 4.7px; font-family: 'DejaVu Sans Mono', monospace; text-anchor: middle; fill: #ffffff" x="296.34165" y="89.993706" transform="rotate(-0 296.34165 89.993706)">S3</text>
   </g>
   <g id="text_12">
    <text style="font-weight: 700; font-size: 5.1px; font-family: 'DejaVu Serif', serif; fill: #15191f" transform="translate(309.05568 84.520326)">Drug response /</text>
    <text style="font-weight: 700; font-size: 5.1px; font-family: 'DejaVu Serif', serif; fill: #15191f" transform="translate(309.05568 90.303726)">pharmacogenomics</text>
   </g>
   <g id="text_13">
    <text style="font-weight: 700; font-size: 4.6px; font-family: 'DejaVu Sans Mono', monospace; text-anchor: end; fill: #15191f" x="388.6209" y="95.205192" transform="rotate(-0 388.6209 95.205192)">n=10</text>
   </g>
   <g id="text_14">
    <text style="font-weight: 700; font-size: 4.7px; font-family: 'DejaVu Sans Mono', monospace; text-anchor: middle; fill: #ffffff" x="47.80287" y="119.681826" transform="rotate(-0 47.80287 119.681826)">S4</text>
   </g>
   <g id="text_15">
    <text style="font-size: 5.1px; font-family: 'DejaVu Serif', serif; fill: #5f6872" transform="translate(60.5169 114.208446)">Human genetic</text>
    <text style="font-size: 5.1px; font-family: 'DejaVu Serif', serif; fill: #5f6872" transform="translate(60.5169 119.991846)">target support</text>
   </g>
   <g id="text_16">
    <text style="font-weight: 700; font-size: 4.6px; font-family: 'DejaVu Serif', serif; text-anchor: end; fill: #5f6872" x="140.08212" y="124.893312" transform="rotate(-0 140.08212 124.893312)">reserved*</text>
   </g>
   <g id="text_17">
    <text style="font-weight: 700; font-size: 4.7px; font-family: 'DejaVu Sans Mono', monospace; text-anchor: middle; fill: #ffffff" x="172.07226" y="119.681826" transform="rotate(-0 172.07226 119.681826)">S5</text>
   </g>
   <g id="text_18">
    <text style="font-weight: 700; font-size: 5.1px; font-family: 'DejaVu Serif', serif; fill: #15191f" transform="translate(184.78629 114.280961)">Causal target</text>
    <text style="font-weight: 700; font-size: 5.1px; font-family: 'DejaVu Serif', serif; fill: #15191f" transform="translate(184.78629 120.064361)">validation</text>
   </g>
   <g id="text_19">
    <text style="font-weight: 700; font-size: 4.6px; font-family: 'DejaVu Sans Mono', monospace; text-anchor: end; fill: #15191f" x="264.35151" y="124.893312" transform="rotate(-0 264.35151 124.893312)">n=12</text>
   </g>
   <g id="text_20">
    <text style="font-weight: 700; font-size: 4.7px; font-family: 'DejaVu Sans Mono', monospace; text-anchor: middle; fill: #ffffff" x="296.34165" y="119.681826" transform="rotate(-0 296.34165 119.681826)">S6</text>
   </g>
   <g id="text_21">
    <text style="font-weight: 700; font-size: 5.1px; font-family: 'DejaVu Serif', serif; fill: #15191f" transform="translate(309.05568 114.280961)">MoA /</text>
    <text style="font-weight: 700; font-size: 5.1px; font-family: 'DejaVu Serif', serif; fill: #15191f" transform="translate(309.05568 119.991846)">pharmacodynamics</text>
   </g>
   <g id="text_22">
    <text style="font-weight: 700; font-size: 4.6px; font-family: 'DejaVu Sans Mono', monospace; text-anchor: end; fill: #15191f" x="388.6209" y="124.893312" transform="rotate(-0 388.6209 124.893312)">n=21</text>
   </g>
   <g id="text_23">
    <text style="font-weight: 700; font-size: 4.7px; font-family: 'DejaVu Sans Mono', monospace; text-anchor: middle; fill: #ffffff" x="47.80287" y="149.369946" transform="rotate(-0 47.80287 149.369946)">S7</text>
   </g>
   <g id="text_24">
    <text style="font-weight: 700; font-size: 5.1px; font-family: 'DejaVu Serif', serif; fill: #15191f" transform="translate(60.5169 143.969081)">Compound-target</text>
    <text style="font-weight: 700; font-size: 5.1px; font-family: 'DejaVu Serif', serif; fill: #15191f" transform="translate(60.5169 149.752481)">characterization</text>
   </g>
   <g id="text_25">
    <text style="font-weight: 700; font-size: 4.6px; font-family: 'DejaVu Sans Mono', monospace; text-anchor: end; fill: #15191f" x="140.08212" y="154.581432" transform="rotate(-0 140.08212 154.581432)">n=8</text>
   </g>
   <g id="text_26">
    <text style="font-weight: 700; font-size: 4.7px; font-family: 'DejaVu Sans Mono', monospace; text-anchor: middle; fill: #ffffff" x="172.07226" y="149.369946" transform="rotate(-0 172.07226 149.369946)">S8</text>
   </g>
   <g id="text_27">
    <text style="font-weight: 700; font-size: 5.1px; font-family: 'DejaVu Serif', serif; fill: #15191f" transform="translate(184.78629 143.932823)">Developability /</text>
    <text style="font-weight: 700; font-size: 5.1px; font-family: 'DejaVu Serif', serif; fill: #15191f" transform="translate(184.78629 149.716223)">safety / PK</text>
   </g>
   <g id="text_28">
    <text style="font-weight: 700; font-size: 4.6px; font-family: 'DejaVu Sans Mono', monospace; text-anchor: end; fill: #15191f" x="264.35151" y="154.581432" transform="rotate(-0 264.35151 154.581432)">n=20</text>
   </g>
   <g id="text_29">
    <text style="font-weight: 700; font-size: 4.7px; font-family: 'DejaVu Sans Mono', monospace; text-anchor: middle; fill: #ffffff" x="296.34165" y="149.369946" transform="rotate(-0 296.34165 149.369946)">S9</text>
   </g>
   <g id="text_30">
    <text style="font-weight: 700; font-size: 5.1px; font-family: 'DejaVu Serif', serif; fill: #15191f" transform="translate(309.05568 143.969081)">Translational</text>
    <text style="font-weight: 700; font-size: 5.1px; font-family: 'DejaVu Serif', serif; fill: #15191f" transform="translate(309.05568 149.679966)">efficacy</text>
   </g>
   <g id="text_31">
    <text style="font-weight: 700; font-size: 4.6px; font-family: 'DejaVu Sans Mono', monospace; text-anchor: end; fill: #15191f" x="388.6209" y="154.581432" transform="rotate(-0 388.6209 154.581432)">n=17</text>
   </g>
   <g id="text_32">
    <text style="font-weight: 700; font-size: 7px; font-family: 'DejaVu Sans Mono', monospace; text-anchor: start; fill: #a95f3d" x="33.03819" y="189.297702" transform="rotate(-0 33.03819 189.297702)">B</text>
   </g>
   <g id="text_33">
    <text style="font-weight: 700; font-size: 7px; font-family: 'DejaVu Serif', serif; text-anchor: start; fill: #15191f" x="42.47118" y="189.198171" transform="rotate(-0 42.47118 189.198171)">Assay type</text>
   </g>
   <g id="text_34">
    <text style="font-size: 4.7px; font-family: 'DejaVu Serif', serif; text-anchor: start; fill: #15191f" x="33.85845" y="207.515118" transform="rotate(-0 33.85845 207.515118)">Drug-response screens</text>
   </g>
   <g id="text_35">
    <text style="font-weight: 700; font-size: 4.7px; font-family: 'DejaVu Sans Mono', monospace; text-anchor: end; fill: #15191f" x="174.12291" y="207.581946" transform="rotate(-0 174.12291 207.581946)">22</text>
   </g>
   <g id="text_36">
    <text style="font-size: 4.7px; font-family: 'DejaVu Serif', serif; text-anchor: start; fill: #15191f" x="33.85845" y="215.116092" transform="rotate(-0 33.85845 215.116092)">Image / histology / physiology</text>
   </g>
   <g id="text_37">
    <text style="font-weight: 700; font-size: 4.7px; font-family: 'DejaVu Sans Mono', monospace; text-anchor: end; fill: #15191f" x="174.12291" y="215.149506" transform="rotate(-0 174.12291 215.149506)">17</text>
   </g>
   <g id="text_38">
    <text style="font-size: 4.7px; font-family: 'DejaVu Serif', serif; text-anchor: start; fill: #15191f" x="33.85845" y="222.717066" transform="rotate(-0 33.85845 222.717066)">Protein / phospho readouts</text>
   </g>
   <g id="text_39">
    <text style="font-weight: 700; font-size: 4.7px; font-family: 'DejaVu Sans Mono', monospace; text-anchor: end; fill: #15191f" x="174.12291" y="222.717066" transform="rotate(-0 174.12291 222.717066)">16</text>
   </g>
   <g id="text_40">
    <text style="font-size: 4.7px; font-family: 'DejaVu Serif', serif; text-anchor: start; fill: #15191f" x="33.85845" y="230.284626" transform="rotate(-0 33.85845 230.284626)">Genetic perturbation</text>
   </g>
   <g id="text_41">
    <text style="font-weight: 700; font-size: 4.7px; font-family: 'DejaVu Sans Mono', monospace; text-anchor: end; fill: #15191f" x="174.12291" y="230.284626" transform="rotate(-0 174.12291 230.284626)">12</text>
   </g>
   <g id="text_42">
    <text style="font-size: 4.7px; font-family: 'DejaVu Serif', serif; text-anchor: start; fill: #15191f" x="33.85845" y="237.818772" transform="rotate(-0 33.85845 237.818772)">Target engagement / selectivity</text>
   </g>
   <g id="text_43">
    <text style="font-weight: 700; font-size: 4.7px; font-family: 'DejaVu Sans Mono', monospace; text-anchor: end; fill: #15191f" x="174.12291" y="237.852186" transform="rotate(-0 174.12291 237.852186)">11</text>
   </g>
   <g id="text_44">
    <text style="font-size: 4.7px; font-family: 'DejaVu Serif', serif; text-anchor: start; fill: #15191f" x="33.85845" y="245.386332" transform="rotate(-0 33.85845 245.386332)">Single-cell / molecular state</text>
   </g>
   <g id="text_45">
    <text style="font-weight: 700; font-size: 4.7px; font-family: 'DejaVu Sans Mono', monospace; text-anchor: end; fill: #15191f" x="174.12291" y="245.419746" transform="rotate(-0 174.12291 245.419746)">8</text>
   </g>
   <g id="text_46">
    <text style="font-size: 4.7px; font-family: 'DejaVu Serif', serif; text-anchor: start; fill: #15191f" x="33.85845" y="252.953892" transform="rotate(-0 33.85845 252.953892)">DMPK / safety profiling</text>
   </g>
   <g id="text_47">
    <text style="font-weight: 700; font-size: 4.7px; font-family: 'DejaVu Sans Mono', monospace; text-anchor: end; fill: #15191f" x="174.12291" y="252.987306" transform="rotate(-0 174.12291 252.987306)">7</text>
   </g>
   <g id="text_48">
    <text style="font-size: 4.7px; font-family: 'DejaVu Serif', serif; text-anchor: start; fill: #15191f" x="33.85845" y="260.554866" transform="rotate(-0 33.85845 260.554866)">In vivo / curated summaries</text>
   </g>
   <g id="text_49">
    <text style="font-weight: 700; font-size: 4.7px; font-family: 'DejaVu Sans Mono', monospace; text-anchor: end; fill: #15191f" x="174.12291" y="260.554866" transform="rotate(-0 174.12291 260.554866)">7</text>
   </g>
   <g id="text_50">
    <text style="font-weight: 700; font-size: 7px; font-family: 'DejaVu Sans Mono', monospace; text-anchor: start; fill: #a95f3d" x="225.79929" y="189.297702" transform="rotate(-0 225.79929 189.297702)">C</text>
   </g>
   <g id="text_51">
    <text style="font-weight: 700; font-size: 7px; font-family: 'DejaVu Serif', serif; text-anchor: start; fill: #15191f" x="235.23228" y="189.297702" transform="rotate(-0 235.23228 189.297702)">Task structure</text>
   </g>
   <g id="text_52">
    <text style="font-size: 4.15px; font-family: 'DejaVu Serif', serif; text-anchor: start; fill: #15191f" x="226.61955" y="206.557001" transform="rotate(-0 226.61955 206.557001)">MoA</text>
   </g>
   <g id="text_53">
    <text style="font-weight: 700; font-size: 4.15px; font-family: 'DejaVu Sans Mono', monospace; text-anchor: end; fill: #15191f" x="348.42816" y="206.557001" transform="rotate(-0 348.42816 206.557001)">14</text>
   </g>
   <g id="text_54">
    <text style="font-size: 4.15px; font-family: 'DejaVu Serif', serif; text-anchor: start; fill: #15191f" x="226.61955" y="210.573629" transform="rotate(-0 226.61955 210.573629)">QC</text>
   </g>
   <g id="text_55">
    <text style="font-weight: 700; font-size: 4.15px; font-family: 'DejaVu Sans Mono', monospace; text-anchor: end; fill: #15191f" x="348.42816" y="210.573629" transform="rotate(-0 348.42816 210.573629)">7</text>
   </g>
   <g id="text_56">
    <text style="font-size: 4.15px; font-family: 'DejaVu Serif', serif; text-anchor: start; fill: #15191f" x="226.61955" y="214.560753" transform="rotate(-0 226.61955 214.560753)">Target dep.</text>
   </g>
   <g id="text_57">
    <text style="font-weight: 700; font-size: 4.15px; font-family: 'DejaVu Sans Mono', monospace; text-anchor: end; fill: #15191f" x="348.42816" y="214.590257" transform="rotate(-0 348.42816 214.590257)">7</text>
   </g>
   <g id="text_58">
    <text style="font-size: 4.15px; font-family: 'DejaVu Serif', serif; text-anchor: start; fill: #15191f" x="226.61955" y="218.606885" transform="rotate(-0 226.61955 218.606885)">Diff. response</text>
   </g>
   <g id="text_59">
    <text style="font-weight: 700; font-size: 4.15px; font-family: 'DejaVu Sans Mono', monospace; text-anchor: end; fill: #15191f" x="348.42816" y="218.606885" transform="rotate(-0 348.42816 218.606885)">7</text>
   </g>
   <g id="text_60">
    <text style="font-size: 4.15px; font-family: 'DejaVu Serif', serif; text-anchor: start; fill: #15191f" x="226.61955" y="222.594009" transform="rotate(-0 226.61955 222.594009)">Safety</text>
   </g>
   <g id="text_61">
    <text style="font-weight: 700; font-size: 4.15px; font-family: 'DejaVu Sans Mono', monospace; text-anchor: end; fill: #15191f" x="348.42816" y="222.623513" transform="rotate(-0 348.42816 222.623513)">7</text>
   </g>
   <g id="text_62">
    <text style="font-size: 4.15px; font-family: 'DejaVu Serif', serif; text-anchor: start; fill: #15191f" x="226.61955" y="226.581133" transform="rotate(-0 226.61955 226.581133)">Image</text>
   </g>
   <g id="text_63">
    <text style="font-weight: 700; font-size: 4.15px; font-family: 'DejaVu Sans Mono', monospace; text-anchor: end; fill: #15191f" x="348.42816" y="226.640141" transform="rotate(-0 348.42816 226.640141)">6</text>
   </g>
   <g id="text_64">
    <text style="font-size: 4.15px; font-family: 'DejaVu Serif', serif; text-anchor: start; fill: #15191f" x="226.61955" y="230.656769" transform="rotate(-0 226.61955 230.656769)">Dim. reduction</text>
   </g>
   <g id="text_65">
    <text style="font-weight: 700; font-size: 4.15px; font-family: 'DejaVu Sans Mono', monospace; text-anchor: end; fill: #15191f" x="348.42816" y="230.656769" transform="rotate(-0 348.42816 230.656769)">6</text>
   </g>
   <g id="text_66">
    <text style="font-size: 4.15px; font-family: 'DejaVu Serif', serif; text-anchor: start; fill: #15191f" x="226.61955" y="234.643893" transform="rotate(-0 226.61955 234.643893)">Phenotype</text>
   </g>
   <g id="text_67">
    <text style="font-weight: 700; font-size: 4.15px; font-family: 'DejaVu Sans Mono', monospace; text-anchor: end; fill: #15191f" x="348.42816" y="234.673397" transform="rotate(-0 348.42816 234.673397)">6</text>
   </g>
   <g id="text_68">
    <text style="font-size: 4.15px; font-family: 'DejaVu Serif', serif; text-anchor: start; fill: #15191f" x="226.61955" y="238.631017" transform="rotate(-0 226.61955 238.631017)">Target engage.</text>
   </g>
   <g id="text_69">
    <text style="font-weight: 700; font-size: 4.15px; font-family: 'DejaVu Sans Mono', monospace; text-anchor: end; fill: #15191f" x="348.42816" y="238.690025" transform="rotate(-0 348.42816 238.690025)">5</text>
   </g>
   <g id="text_70">
    <text style="font-size: 4.15px; font-family: 'DejaVu Serif', serif; text-anchor: start; fill: #15191f" x="226.61955" y="242.706653" transform="rotate(-0 226.61955 242.706653)">Cheminfo</text>
   </g>
   <g id="text_71">
    <text style="font-weight: 700; font-size: 4.15px; font-family: 'DejaVu Sans Mono', monospace; text-anchor: end; fill: #15191f" x="348.42816" y="242.706653" transform="rotate(-0 348.42816 242.706653)">5</text>
   </g>
   <g id="text_72">
    <text style="font-size: 4.15px; font-family: 'DejaVu Serif', serif; text-anchor: start; fill: #15191f" x="226.61955" y="246.723281" transform="rotate(-0 226.61955 246.723281)">Exposure / PK</text>
   </g>
   <g id="text_73">
    <text style="font-weight: 700; font-size: 4.15px; font-family: 'DejaVu Sans Mono', monospace; text-anchor: end; fill: #15191f" x="348.42816" y="246.723281" transform="rotate(-0 348.42816 246.723281)">4</text>
   </g>
   <g id="text_74">
    <text style="font-size: 4.15px; font-family: 'DejaVu Serif', serif; text-anchor: start; fill: #15191f" x="226.61955" y="250.739909" transform="rotate(-0 226.61955 250.739909)">Biomarker</text>
   </g>
   <g id="text_75">
    <text style="font-weight: 700; font-size: 4.15px; font-family: 'DejaVu Sans Mono', monospace; text-anchor: end; fill: #15191f" x="348.42816" y="250.739909" transform="rotate(-0 348.42816 250.739909)">4</text>
   </g>
   <g id="text_76">
    <text style="font-size: 4.15px; font-family: 'DejaVu Serif', serif; text-anchor: start; fill: #15191f" x="226.61955" y="254.727033" transform="rotate(-0 226.61955 254.727033)">Program call</text>
   </g>
   <g id="text_77">
    <text style="font-weight: 700; font-size: 4.15px; font-family: 'DejaVu Sans Mono', monospace; text-anchor: end; fill: #15191f" x="348.42816" y="254.756537" transform="rotate(-0 348.42816 254.756537)">4</text>
   </g>
   <g id="text_78">
    <text style="font-size: 4.15px; font-family: 'DejaVu Serif', serif; text-anchor: start; fill: #15191f" x="226.61955" y="258.714157" transform="rotate(-0 226.61955 258.714157)">Hit priority</text>
   </g>
   <g id="text_79">
    <text style="font-weight: 700; font-size: 4.15px; font-family: 'DejaVu Sans Mono', monospace; text-anchor: end; fill: #15191f" x="348.42816" y="258.773165" transform="rotate(-0 348.42816 258.773165)">4</text>
   </g>
   <g id="text_80">
    <text style="font-size: 4.15px; font-family: 'DejaVu Serif', serif; text-anchor: start; fill: #5f6872" x="226.61955" y="262.789793" transform="rotate(-0 226.61955 262.789793)">Tail &lt;4 each</text>
   </g>
   <g id="text_81">
    <text style="font-weight: 700; font-size: 4.15px; font-family: 'DejaVu Sans Mono', monospace; text-anchor: end; fill: #5f6872" x="348.42816" y="262.789793" transform="rotate(-0 348.42816 262.789793)">14</text>
   </g>
   <g id="text_82">
    <text style="font-size: 5.2px; font-family: 'DejaVu Serif', serif; text-anchor: start; fill: #5f6872" x="226.61955" y="276.373106" transform="rotate(-0 226.61955 276.373106)">Task counts show categories with &gt;=4 evaluations plus the smaller-category tail.</text>
   </g>
   <g id="text_83">
    <text style="font-size: 5.8px; font-family: 'DejaVu Serif', serif; text-anchor: start; fill: #5f6872" x="27.7065" y="287.594683" transform="rotate(-0 27.7065 287.594683)">* reserved for future benchmarking work</text>
   </g>
  </g>
 </g>
 <defs>
  <clipPath id="pa9f36f9147">
   <rect x="7.2" y="7.2" width="410.13" height="291.06"/>
  </clipPath>
 </defs>
</svg>
