<?xml version="1.0" encoding="utf-8" standalone="no"?>
<!DOCTYPE svg PUBLIC "-//W3C//DTD SVG 1.1//EN"
  "http://www.w3.org/Graphics/SVG/1.1/DTD/svg11.dtd">
<svg xmlns:xlink="http://www.w3.org/1999/xlink" width="527.244806pt" height="255.564pt" viewBox="0 0 527.244806 255.564" xmlns="http://www.w3.org/2000/svg" version="1.1">
 <metadata>
  <rdf:RDF xmlns:dc="http://purl.org/dc/elements/1.1/" xmlns:cc="http://creativecommons.org/ns#" xmlns:rdf="http://www.w3.org/1999/02/22-rdf-syntax-ns#">
   <cc:Work>
    <dc:type rdf:resource="http://purl.org/dc/dcmitype/StillImage"/>
    <dc:date>2026-06-15T17:47:11.140258</dc:date>
    <dc:format>image/svg+xml</dc:format>
    <dc:creator>
     <cc:Agent>
      <dc:title>Matplotlib v3.10.8, https://matplotlib.org/</dc:title>
     </cc:Agent>
    </dc:creator>
   </cc:Work>
  </rdf:RDF>
 </metadata>
 <defs>
  <style type="text/css">*{stroke-linejoin: round; stroke-linecap: butt}</style>
 </defs>
 <g id="figure_1">
  <g id="patch_1">
   <path d="M 0 255.564 
L 527.244806 255.564 
L 527.244806 0 
L 0 0 
z
" style="fill: #ffffff"/>
  </g>
  <g id="axes_1">
   <g id="patch_2">
    <path d="M 27.29637 78.825708 
L 397.23363 78.825708 
Q 402.15519 78.825708 402.15519 75.93174 
L 402.15519 55.673964 
Q 402.15519 52.779996 397.23363 52.779996 
L 27.29637 52.779996 
Q 22.37481 52.779996 22.37481 55.673964 
L 22.37481 75.93174 
Q 22.37481 78.825708 27.29637 78.825708 
z
" clip-path="url(#p71309edfca)" style="fill: #fbfaf6; stroke: #ddd7cb; stroke-width: 0.35; stroke-linejoin: miter"/>
   </g>
   <g id="patch_3">
    <path d="M 31.8078 75.449412 
L 47.80287 75.449412 
Q 51.90417 75.449412 51.90417 73.037772 
L 51.90417 59.532588 
Q 51.90417 57.120948 47.80287 57.120948 
L 31.8078 57.120948 
Q 27.7065 57.120948 27.7065 59.532588 
L 27.7065 73.037772 
Q 27.7065 75.449412 31.8078 75.449412 
z
" clip-path="url(#p71309edfca)" style="fill: #a95f3d"/>
   </g>
   <g id="patch_4">
    <path d="M 236.05254 69.90264 
L 285.26814 69.90264 
L 285.26814 62.66772 
L 236.05254 62.66772 
z
" clip-path="url(#p71309edfca)" style="fill: #ece7df"/>
   </g>
   <g id="patch_5">
    <path d="M 236.05254 69.90264 
L 285.26814 69.90264 
L 285.26814 62.66772 
L 236.05254 62.66772 
z
" clip-path="url(#p71309edfca)" style="fill: #a95f3d"/>
   </g>
   <g id="patch_6">
    <path d="M 27.29637 112.10634 
L 397.23363 112.10634 
Q 402.15519 112.10634 402.15519 109.212372 
L 402.15519 88.954596 
Q 402.15519 86.060628 397.23363 86.060628 
L 27.29637 86.060628 
Q 22.37481 86.060628 22.37481 88.954596 
L 22.37481 109.212372 
Q 22.37481 112.10634 27.29637 112.10634 
z
" clip-path="url(#p71309edfca)" style="fill: #ffffff; stroke: #ddd7cb; stroke-width: 0.35; stroke-linejoin: miter"/>
   </g>
   <g id="patch_7">
    <path d="M 31.8078 108.730044 
L 47.80287 108.730044 
Q 51.90417 108.730044 51.90417 106.318404 
L 51.90417 92.81322 
Q 51.90417 90.40158 47.80287 90.40158 
L 31.8078 90.40158 
Q 27.7065 90.40158 27.7065 92.81322 
L 27.7065 106.318404 
Q 27.7065 108.730044 31.8078 108.730044 
z
" clip-path="url(#p71309edfca)" style="fill: #7267c8"/>
   </g>
   <g id="patch_8">
    <path d="M 236.05254 103.183272 
L 285.26814 103.183272 
L 285.26814 95.948352 
L 236.05254 95.948352 
z
" clip-path="url(#p71309edfca)" style="fill: #ece7df"/>
   </g>
   <g id="patch_9">
    <path d="M 236.05254 103.183272 
L 248.35644 103.183272 
L 248.35644 95.948352 
L 236.05254 95.948352 
z
" clip-path="url(#p71309edfca)" style="fill: #7267c8"/>
   </g>
   <g id="patch_10">
    <path d="M 27.29637 145.386972 
L 397.23363 145.386972 
Q 402.15519 145.386972 402.15519 142.493004 
L 402.15519 122.235228 
Q 402.15519 119.34126 397.23363 119.34126 
L 27.29637 119.34126 
Q 22.37481 119.34126 22.37481 122.235228 
L 22.37481 142.493004 
Q 22.37481 145.386972 27.29637 145.386972 
z
" clip-path="url(#p71309edfca)" style="fill: #fbfaf6; stroke: #ddd7cb; stroke-width: 0.35; stroke-linejoin: miter"/>
   </g>
   <g id="patch_11">
    <path d="M 31.8078 142.010676 
L 47.80287 142.010676 
Q 51.90417 142.010676 51.90417 139.599036 
L 51.90417 126.093852 
Q 51.90417 123.682212 47.80287 123.682212 
L 31.8078 123.682212 
Q 27.7065 123.682212 27.7065 126.093852 
L 27.7065 139.599036 
Q 27.7065 142.010676 31.8078 142.010676 
z
" clip-path="url(#p71309edfca)" style="fill: #b89142"/>
   </g>
   <g id="patch_12">
    <path d="M 236.05254 136.463904 
L 285.26814 136.463904 
L 285.26814 129.228984 
L 236.05254 129.228984 
z
" clip-path="url(#p71309edfca)" style="fill: #ece7df"/>
   </g>
   <g id="patch_13">
    <path d="M 236.05254 136.463904 
L 238.10319 136.463904 
L 238.10319 129.228984 
L 236.05254 129.228984 
z
" clip-path="url(#p71309edfca)" style="fill: #b89142"/>
   </g>
   <g id="patch_14">
    <path d="M 27.29637 178.667604 
L 397.23363 178.667604 
Q 402.15519 178.667604 402.15519 175.773636 
L 402.15519 155.51586 
Q 402.15519 152.621892 397.23363 152.621892 
L 27.29637 152.621892 
Q 22.37481 152.621892 22.37481 155.51586 
L 22.37481 175.773636 
Q 22.37481 178.667604 27.29637 178.667604 
z
" clip-path="url(#p71309edfca)" style="fill: #ffffff; stroke: #ddd7cb; stroke-width: 0.35; stroke-linejoin: miter"/>
   </g>
   <g id="patch_15">
    <path d="M 31.8078 175.291308 
L 47.80287 175.291308 
Q 51.90417 175.291308 51.90417 172.879668 
L 51.90417 159.374484 
Q 51.90417 156.962844 47.80287 156.962844 
L 31.8078 156.962844 
Q 27.7065 156.962844 27.7065 159.374484 
L 27.7065 172.879668 
Q 27.7065 175.291308 31.8078 175.291308 
z
" clip-path="url(#p71309edfca)" style="fill: #d14b4b"/>
   </g>
   <g id="patch_16">
    <path d="M 236.05254 169.744536 
L 285.26814 169.744536 
L 285.26814 162.509616 
L 236.05254 162.509616 
z
" clip-path="url(#p71309edfca)" style="fill: #ece7df"/>
   </g>
   <g id="patch_17">
    <path d="M 236.05254 169.744536 
L 256.55904 169.744536 
L 256.55904 162.509616 
L 236.05254 162.509616 
z
" clip-path="url(#p71309edfca)" style="fill: #d14b4b"/>
   </g>
   <g id="patch_18">
    <path d="M 27.29637 211.948236 
L 397.23363 211.948236 
Q 402.15519 211.948236 402.15519 209.054268 
L 402.15519 188.796492 
Q 402.15519 185.902524 397.23363 185.902524 
L 27.29637 185.902524 
Q 22.37481 185.902524 22.37481 188.796492 
L 22.37481 209.054268 
Q 22.37481 211.948236 27.29637 211.948236 
z
" clip-path="url(#p71309edfca)" style="fill: #fbfaf6; stroke: #ddd7cb; stroke-width: 0.35; stroke-linejoin: miter"/>
   </g>
   <g id="patch_19">
    <path d="M 31.8078 208.57194 
L 47.80287 208.57194 
Q 51.90417 208.57194 51.90417 206.1603 
L 51.90417 192.655116 
Q 51.90417 190.243476 47.80287 190.243476 
L 31.8078 190.243476 
Q 27.7065 190.243476 27.7065 192.655116 
L 27.7065 206.1603 
Q 27.7065 208.57194 31.8078 208.57194 
z
" clip-path="url(#p71309edfca)" style="fill: #2a9d8f"/>
   </g>
   <g id="patch_20">
    <path d="M 236.05254 203.025168 
L 285.26814 203.025168 
L 285.26814 195.790248 
L 236.05254 195.790248 
z
" clip-path="url(#p71309edfca)" style="fill: #ece7df"/>
   </g>
   <g id="patch_21">
    <path d="M 236.05254 203.025168 
L 282.192165 203.025168 
L 282.192165 195.790248 
L 236.05254 195.790248 
z
" clip-path="url(#p71309edfca)" style="fill: #2a9d8f"/>
   </g>
   <g id="line2d_1">
    <path d="M 27.7065 46.268568 
L 398.87415 46.268568 
" clip-path="url(#p71309edfca)" style="fill: none; stroke: #ddd7cb; stroke-width: 0.9; stroke-linecap: square"/>
   </g>
   <g id="text_1">
    <text style="font-weight: 700; font-size: 10.5px; font-family: 'DejaVu Serif', serif; text-anchor: start; fill: #15191f" x="29.75715" y="20.875075" transform="rotate(-0 29.75715 20.875075)">Evaluation inventory follows assay evidence, not a generic drug-discovery checklist</text>
   </g>
   <g id="text_2">
    <text style="font-weight: 700; font-size: 6.7px; font-family: 'DejaVu Sans Mono', monospace; text-anchor: start; fill: #5f6872" x="29.75715" y="40.400101" transform="rotate(-0 29.75715 40.400101)">Dataset</text>
   </g>
   <g id="text_3">
    <text style="font-weight: 700; font-size: 6.7px; font-family: 'DejaVu Sans Mono', monospace; text-anchor: start; fill: #5f6872" x="124.08705" y="40.574929" transform="rotate(-0 124.08705 40.574929)">Assay evidence</text>
   </g>
   <g id="text_4">
    <text style="font-weight: 700; font-size: 6.7px; font-family: 'DejaVu Sans Mono', monospace; text-anchor: start; fill: #5f6872" x="234.82215" y="40.400101" transform="rotate(-0 234.82215 40.400101)">Approx. evals</text>
   </g>
   <g id="text_5">
    <text style="font-weight: 700; font-size: 6.7px; font-family: 'DejaVu Sans Mono', monospace; text-anchor: start; fill: #5f6872" x="312.74685" y="40.400101" transform="rotate(-0 312.74685 40.400101)">Decision tested</text>
   </g>
   <g id="text_6">
    <text style="font-weight: 700; font-size: 7px; font-family: 'DejaVu Sans Mono', monospace; text-anchor: middle; fill: #ffffff" x="39.805335" y="68.216742" transform="rotate(-0 39.805335 68.216742)">DM</text>
   </g>
   <g id="text_7">
    <text style="font-weight: 700; font-size: 7px; font-family: 'DejaVu Serif', serif; text-anchor: start; fill: #15191f" x="53.13456" y="66.237665" transform="rotate(-0 53.13456 66.237665)">decryptM</text>
   </g>
   <g id="text_8">
    <text style="font-size: 6.1px; font-family: 'DejaVu Serif', serif; fill: #15191f" transform="translate(124.08705 64.553066)">dose-resolved</text>
    <text style="font-size: 6.1px; font-family: 'DejaVu Serif', serif; fill: #15191f" transform="translate(124.08705 71.383732)">phosphoproteomics</text>
   </g>
   <g id="text_9">
    <text style="font-weight: 700; font-size: 6.4px; font-family: 'DejaVu Sans Mono', monospace; text-anchor: end; fill: #15191f" x="291.00996" y="68.05118" transform="rotate(-0 291.00996 68.05118)">48</text>
   </g>
   <g id="text_10">
    <text style="font-size: 6.2px; font-family: 'DejaVu Serif', serif; text-anchor: start; fill: #15191f" x="312.74685" y="67.951914" transform="rotate(-0 312.74685 67.951914)">MoA / pathway readouts</text>
   </g>
   <g id="text_11">
    <text style="font-weight: 700; font-size: 7px; font-family: 'DejaVu Sans Mono', monospace; text-anchor: middle; fill: #ffffff" x="39.805335" y="101.497375" transform="rotate(-0 39.805335 101.497375)">DE</text>
   </g>
   <g id="text_12">
    <text style="font-weight: 700; font-size: 7px; font-family: 'DejaVu Serif', serif; text-anchor: start; fill: #15191f" x="53.13456" y="99.518297" transform="rotate(-0 53.13456 99.518297)">decryptE</text>
   </g>
   <g id="text_13">
    <text style="font-size: 6.1px; font-family: 'DejaVu Serif', serif; fill: #15191f" transform="translate(124.08705 97.833698)">dose-resolved expression</text>
    <text style="font-size: 6.1px; font-family: 'DejaVu Serif', serif; fill: #15191f" transform="translate(124.08705 104.664364)">proteomics</text>
   </g>
   <g id="text_14">
    <text style="font-weight: 700; font-size: 6.4px; font-family: 'DejaVu Sans Mono', monospace; text-anchor: end; fill: #15191f" x="291.00996" y="101.331812" transform="rotate(-0 291.00996 101.331812)">12</text>
   </g>
   <g id="text_15">
    <text style="font-size: 6.2px; font-family: 'DejaVu Serif', serif; text-anchor: start; fill: #15191f" x="312.74685" y="101.232546" transform="rotate(-0 312.74685 101.232546)">MoA + target reliability</text>
   </g>
   <g id="text_16">
    <text style="font-weight: 700; font-size: 7px; font-family: 'DejaVu Sans Mono', monospace; text-anchor: middle; fill: #ffffff" x="39.805335" y="134.778006" transform="rotate(-0 39.805335 134.778006)">KB</text>
   </g>
   <g id="text_17">
    <text style="font-weight: 700; font-size: 7px; font-family: 'DejaVu Serif', serif; text-anchor: start; fill: #15191f" x="53.13456" y="132.848694" transform="rotate(-0 53.13456 132.848694)">Kinobeads</text>
   </g>
   <g id="text_18">
    <text style="font-size: 6.1px; font-family: 'DejaVu Serif', serif; fill: #15191f" transform="translate(124.08705 131.027596)">chemoproteomics target</text>
    <text style="font-size: 6.1px; font-family: 'DejaVu Serif', serif; fill: #15191f" transform="translate(124.08705 137.944996)">engagement</text>
   </g>
   <g id="text_19">
    <text style="font-weight: 700; font-size: 6.4px; font-family: 'DejaVu Sans Mono', monospace; text-anchor: end; fill: #15191f" x="291.00996" y="134.612444" transform="rotate(-0 291.00996 134.612444)">2</text>
   </g>
   <g id="text_20">
    <text style="font-size: 6.2px; font-family: 'DejaVu Serif', serif; text-anchor: start; fill: #15191f" x="312.74685" y="134.513178" transform="rotate(-0 312.74685 134.513178)">direct target selection</text>
   </g>
   <g id="text_21">
    <text style="font-weight: 700; font-size: 7px; font-family: 'DejaVu Sans Mono', monospace; text-anchor: middle; fill: #ffffff" x="39.805335" y="168.058638" transform="rotate(-0 39.805335 168.058638)">TG</text>
   </g>
   <g id="text_22">
    <text style="font-weight: 700; font-size: 7px; font-family: 'DejaVu Serif', serif; text-anchor: start; fill: #15191f" x="53.13456" y="166.129326" transform="rotate(-0 53.13456 166.129326)">TG-GATEs</text>
   </g>
   <g id="text_23">
    <text style="font-size: 6.1px; font-family: 'DejaVu Serif', serif; text-anchor: start; fill: #15191f" x="124.08705" y="167.72356" transform="rotate(-0 124.08705 167.72356)">in vivo rat toxicogenomics</text>
   </g>
   <g id="text_24">
    <text style="font-weight: 700; font-size: 6.4px; font-family: 'DejaVu Sans Mono', monospace; text-anchor: end; fill: #15191f" x="291.00996" y="167.893076" transform="rotate(-0 291.00996 167.893076)">20</text>
   </g>
   <g id="text_25">
    <text style="font-size: 6.2px; font-family: 'DejaVu Serif', serif; text-anchor: start; fill: #15191f" x="312.74685" y="167.79381" transform="rotate(-0 312.74685 167.79381)">safety / tox calls</text>
   </g>
   <g id="text_26">
    <text style="font-weight: 700; font-size: 7px; font-family: 'DejaVu Sans Mono', monospace; text-anchor: middle; fill: #ffffff" x="39.805335" y="201.33927" transform="rotate(-0 39.805335 201.33927)">PK</text>
   </g>
   <g id="text_27">
    <text style="font-weight: 700; font-size: 7px; font-family: 'DejaVu Serif', serif; text-anchor: start; fill: #15191f" x="53.13456" y="199.409958" transform="rotate(-0 53.13456 199.409958)">PK/ADMET</text>
   </g>
   <g id="text_28">
    <text style="font-size: 6.1px; font-family: 'DejaVu Serif', serif; text-anchor: start; fill: #15191f" x="124.08705" y="201.090927" transform="rotate(-0 124.08705 201.090927)">curated ADMET, DMPK, PK</text>
   </g>
   <g id="text_29">
    <text style="font-weight: 700; font-size: 6.4px; font-family: 'DejaVu Sans Mono', monospace; text-anchor: end; fill: #15191f" x="291.00996" y="201.173708" transform="rotate(-0 291.00996 201.173708)">45</text>
   </g>
   <g id="text_30">
    <text style="font-size: 6.2px; font-family: 'DejaVu Serif', serif; fill: #15191f" transform="translate(312.74685 197.647199)">free exposure + source</text>
    <text style="font-size: 6.2px; font-family: 'DejaVu Serif', serif; fill: #15191f" transform="translate(312.74685 204.589842)">choice</text>
   </g>
   <g id="text_31">
    <text style="font-size: 6.3px; font-family: 'DejaVu Serif', serif; text-anchor: start; fill: #5f6872" x="27.7065" y="237.517089" transform="rotate(-0 27.7065 237.517089)">Counts are approximate where the planning documents specify a target range. Replace with finalized inventory counts after task freeze.</text>
   </g>
  </g>
 </g>
 <defs>
  <clipPath id="p71309edfca">
   <rect x="7.2" y="7.2" width="410.13" height="241.164"/>
  </clipPath>
 </defs>
</svg>
